<svg width="121" height="121" viewBox="0 0 121 121" fill="none" xmlns="http://www.w3.org/2000/svg">
<mask id="mask0_188_1959" style="mask-type:luminance" maskUnits="userSpaceOnUse" x="0" y="0" width="121" height="121">
<path d="M60.6799 120.07C93.817 120.07 120.68 93.2071 120.68 60.07C120.68 26.9329 93.817 0.0700073 60.6799 0.0700073C27.5428 0.0700073 0.679932 26.9329 0.679932 60.07C0.679932 93.2071 27.5428 120.07 60.6799 120.07Z" fill="white"/>
</mask>
<g mask="url(#mask0_188_1959)">
<path d="M145.84 -4H-14V122.87H145.84V-4Z" fill="#1783AD"/>
<path d="M64.29 53.23C75.3412 53.23 84.3 44.2712 84.3 33.22C84.3 22.1688 75.3412 13.21 64.29 13.21C53.2388 13.21 44.28 22.1688 44.28 33.22C44.28 44.2712 53.2388 53.23 64.29 53.23Z" fill="#FFEB99"/>
<path d="M80.9601 39.25H56.0901C51.4001 39.25 47.5801 35.43 47.5801 30.74H48.5001C48.5001 34.93 51.9101 38.33 56.0901 38.33H80.9601C87.2201 38.33 92.3001 33.24 92.3001 26.99V20.88H93.2201V26.99C93.2201 33.75 87.7201 39.25 80.9601 39.25Z" fill="#4B5051"/>
<path d="M61.97 38.79H61.05V43.72H61.97V38.79Z" fill="#4B5051"/>
<path d="M79.0599 26.45H78.1399V38.78H79.0599V26.45Z" fill="#4B5051"/>
<path d="M131.62 142.24V105.53C117.08 105.53 105.3 117.32 105.3 131.85C105.3 145.56 115.79 156.82 129.18 158.06V192.43H131.91L142 152.62C136.27 152.62 131.62 147.97 131.62 142.24Z" fill="#A55F19"/>
<path d="M77.84 90.92L64.76 42.95L46.25 53.53V116.01C46.25 129.87 57.48 141.1 71.34 141.1H132.63C146.49 141.1 157.72 129.87 157.72 116.01C157.72 102.15 146.49 90.92 132.63 90.92H77.83H77.84Z" fill="#C67C2C"/>
<path d="M71.34 141.11H132.63C140.48 141.11 147.49 137.5 152.09 131.85H94.91C78.25 131.85 64.75 118.34 64.75 101.69V42.96L46.24 53.54V116.02C46.24 129.88 57.47 141.11 71.33 141.11H71.34Z" fill="#FFEB99"/>
<path d="M89.92 98.58C89.92 100.41 88.44 101.89 86.61 101.89C84.78 101.89 83.3 100.41 83.3 98.58C83.3 96.75 84.78 95.27 86.61 95.27C88.44 95.27 89.92 96.75 89.92 98.58Z" fill="#935116"/>
<path d="M101.99 101.89C103.818 101.89 105.3 100.408 105.3 98.58C105.3 96.752 103.818 95.27 101.99 95.27C100.162 95.27 98.6799 96.752 98.6799 98.58C98.6799 100.408 100.162 101.89 101.99 101.89Z" fill="#935116"/>
<path d="M120.68 98.58C120.68 100.41 119.2 101.89 117.37 101.89C115.54 101.89 114.06 100.41 114.06 98.58C114.06 96.75 115.54 95.27 117.37 95.27C119.2 95.27 120.68 96.75 120.68 98.58Z" fill="#935116"/>
<path d="M33.63 58.6L46.54 63.06C55.49 66.15 64.82 59.5 64.82 50.03V42.95H26.54V48.66C26.54 53.15 29.39 57.14 33.63 58.6Z" fill="#C67C2C"/>
<path d="M64.8201 29.53C68.5301 29.53 71.5301 32.53 71.5301 36.24C71.5301 39.95 68.5301 42.95 64.8201 42.95V29.53Z" fill="#A55F19"/>
<path d="M57.8099 47.4L59.5299 49.12L57.7699 50.88C56.8499 51.8 55.3499 51.8 54.4299 50.88L54.3799 50.83L52.6599 49.11L54.3299 47.44L54.4199 47.35C55.3399 46.43 56.8399 46.43 57.7599 47.35L57.8099 47.4Z" fill="#4B5051"/>
<path d="M32.36 42.95C32.36 46.16 29.75 48.77 26.54 48.77V42.95H32.36Z" fill="#4B5051"/>
<path d="M56.7 23.5C58.0586 23.5 59.16 22.3986 59.16 21.04C59.16 19.6814 58.0586 18.58 56.7 18.58C55.3414 18.58 54.24 19.6814 54.24 21.04C54.24 22.3986 55.3414 23.5 56.7 23.5Z" fill="#F7D52F"/>
<path d="M64.2901 23.5C65.6487 23.5 66.7501 22.3986 66.7501 21.04C66.7501 19.6814 65.6487 18.58 64.2901 18.58C62.9315 18.58 61.8301 19.6814 61.8301 21.04C61.8301 22.3986 62.9315 23.5 64.2901 23.5Z" fill="#F7D52F"/>
<path d="M71.8799 23.5C73.2385 23.5 74.3399 22.3986 74.3399 21.04C74.3399 19.6814 73.2385 18.58 71.8799 18.58C70.5213 18.58 69.4199 19.6814 69.4199 21.04C69.4199 22.3986 70.5213 23.5 71.8799 23.5Z" fill="#F7D52F"/>
<path d="M67.8101 52.32C69.6401 50.67 72.4601 50.82 74.1101 52.65C75.7601 54.48 75.6101 57.3 73.7801 58.95L67.8101 52.32Z" fill="#FFEB99"/>
<path d="M110.48 83.76H78.6101V90.92H110.48V83.76Z" fill="#4B5051"/>
<path d="M82.5901 83.76H80.8501V90.92H82.5901V83.76Z" fill="#FFEB99"/>
<path d="M114.67 78.77H82.8V83.76H114.67V78.77Z" fill="#F7D52F"/>
<path d="M110.36 78.77H108.62V83.76H110.36V78.77Z" fill="#C67C2C"/>
<path d="M109.43 73.4H77.5601V78.77H109.43V73.4Z" fill="#93591F"/>
<path d="M81.25 73.4H79.51V78.77H81.25V73.4Z" fill="#C67C2C"/>
<path d="M52.4201 59.69C57.5619 59.69 61.7301 55.5218 61.7301 50.38C61.7301 45.2382 57.5619 41.07 52.4201 41.07C47.2783 41.07 43.1101 45.2382 43.1101 50.38C43.1101 55.5218 47.2783 59.69 52.4201 59.69Z" stroke="#4B5051" stroke-width="0.79" stroke-miterlimit="10"/>
<mask id="mask1_188_1959" style="mask-type:luminance" maskUnits="userSpaceOnUse" x="37" y="31" width="28" height="33">
<path d="M64.51 42.95V31.37H37.97V42.96H41.62V61.36L46.54 63.06C55.49 66.15 64.82 59.5 64.82 50.03V42.95H64.51Z" fill="white"/>
</mask>
<g mask="url(#mask1_188_1959)">
<path d="M40.2 43.06C41.81 41.78 44.15 42.06 45.43 43.67" stroke="#4B5051" stroke-width="0.79" stroke-miterlimit="10" stroke-linecap="square"/>
</g>
</g>
</svg>
