<svg width="121" height="121" viewBox="0 0 121 121" fill="none" xmlns="http://www.w3.org/2000/svg">
<mask id="mask0_188_1916" style="mask-type:luminance" maskUnits="userSpaceOnUse" x="0" y="0" width="121" height="121">
<path d="M60.6799 120.07C93.817 120.07 120.68 93.2071 120.68 60.07C120.68 26.9329 93.817 0.0700073 60.6799 0.0700073C27.5428 0.0700073 0.679932 26.9329 0.679932 60.07C0.679932 93.2071 27.5428 120.07 60.6799 120.07Z" fill="white"/>
</mask>
<g mask="url(#mask0_188_1916)">
<path d="M145.84 -4H-14V122.87H145.84V-4Z" fill="#E05934"/>
<path d="M64.29 53.23C75.3412 53.23 84.3 44.2712 84.3 33.22C84.3 22.1688 75.3412 13.21 64.29 13.21C53.2388 13.21 44.28 22.1688 44.28 33.22C44.28 44.2712 53.2388 53.23 64.29 53.23Z" fill="#FFEB99"/>
<path d="M80.9601 39.25H56.0901C51.4001 39.25 47.5801 35.43 47.5801 30.74H48.5001C48.5001 34.93 51.9101 38.33 56.0901 38.33H80.9601C87.2201 38.33 92.3001 33.24 92.3001 26.99V20.88H93.2201V26.99C93.2201 33.75 87.7201 39.25 80.9601 39.25Z" fill="#4B5051"/>
<path d="M61.97 38.79H61.05V43.72H61.97V38.79Z" fill="#4B5051"/>
<path d="M79.0599 26.45H78.1399V38.78H79.0599V26.45Z" fill="#4B5051"/>
<path d="M131.62 142.24V105.53C117.08 105.53 105.3 117.32 105.3 131.85C105.3 145.56 115.79 156.82 129.18 158.06V192.43H131.91L142 152.62C136.27 152.62 131.62 147.97 131.62 142.24Z" fill="#A55F19"/>
<path d="M77.84 90.92L64.76 42.95L46.25 53.53V116.01C46.25 129.87 57.48 141.1 71.34 141.1H132.63C146.49 141.1 157.72 129.87 157.72 116.01C157.72 102.15 146.49 90.92 132.63 90.92H77.83H77.84Z" fill="#C67C2C"/>
<path d="M71.34 141.11H132.63C140.48 141.11 147.49 137.5 152.09 131.85H94.91C78.25 131.85 64.75 118.34 64.75 101.69V42.96L46.24 53.54V116.02C46.24 129.88 57.47 141.11 71.33 141.11H71.34Z" fill="#FFEB99"/>
<path d="M89.92 98.58C89.92 100.41 88.44 101.89 86.61 101.89C84.78 101.89 83.3 100.41 83.3 98.58C83.3 96.75 84.78 95.27 86.61 95.27C88.44 95.27 89.92 96.75 89.92 98.58Z" fill="#935116"/>
<path d="M101.99 101.89C103.818 101.89 105.3 100.408 105.3 98.58C105.3 96.752 103.818 95.27 101.99 95.27C100.162 95.27 98.6799 96.752 98.6799 98.58C98.6799 100.408 100.162 101.89 101.99 101.89Z" fill="#935116"/>
<path d="M120.68 98.58C120.68 100.41 119.2 101.89 117.37 101.89C115.54 101.89 114.06 100.41 114.06 98.58C114.06 96.75 115.54 95.27 117.37 95.27C119.2 95.27 120.68 96.75 120.68 98.58Z" fill="#935116"/>
<path d="M33.63 58.6L46.54 63.06C55.49 66.15 64.82 59.5 64.82 50.03V42.95H26.54V48.66C26.54 53.15 29.39 57.14 33.63 58.6Z" fill="#C67C2C"/>
<path d="M64.8201 29.53C68.5301 29.53 71.5301 32.53 71.5301 36.24C71.5301 39.95 68.5301 42.95 64.8201 42.95V29.53Z" fill="#A55F19"/>
<path d="M57.8099 47.4L59.5299 49.12L57.7699 50.88C56.8499 51.8 55.3499 51.8 54.4299 50.88L54.3799 50.83L52.6599 49.11L54.3299 47.44L54.4199 47.35C55.3399 46.43 56.8399 46.43 57.7599 47.35L57.8099 47.4Z" fill="#4B5051"/>
<path d="M32.36 42.95C32.36 46.16 29.75 48.77 26.54 48.77V42.95H32.36Z" fill="#4B5051"/>
<path d="M56.7 23.5C58.0586 23.5 59.16 22.3986 59.16 21.04C59.16 19.6814 58.0586 18.58 56.7 18.58C55.3414 18.58 54.24 19.6814 54.24 21.04C54.24 22.3986 55.3414 23.5 56.7 23.5Z" fill="#F7D52F"/>
<path d="M64.2901 23.5C65.6487 23.5 66.7501 22.3986 66.7501 21.04C66.7501 19.6814 65.6487 18.58 64.2901 18.58C62.9315 18.58 61.8301 19.6814 61.8301 21.04C61.8301 22.3986 62.9315 23.5 64.2901 23.5Z" fill="#F7D52F"/>
<path d="M71.8799 23.5C73.2385 23.5 74.3399 22.3986 74.3399 21.04C74.3399 19.6814 73.2385 18.58 71.8799 18.58C70.5213 18.58 69.4199 19.6814 69.4199 21.04C69.4199 22.3986 70.5213 23.5 71.8799 23.5Z" fill="#F7D52F"/>
<path d="M67.8101 52.32C69.6401 50.67 72.4601 50.82 74.1101 52.65C75.7601 54.48 75.6101 57.3 73.7801 58.95L67.8101 52.32Z" fill="#FFEB99"/>
<path d="M66.4001 102.93C66.4001 102.93 59.2901 105.07 53.9801 117.62C48.6601 130.17 51.2701 136.53 51.2701 136.53L84.1601 122.53L66.4101 102.93H66.4001Z" fill="#C67C2C"/>
<path d="M46.6212 85.9231L45.2471 84.7916L38.1657 93.3912L39.5397 94.5227L46.6212 85.9231Z" fill="#4B5051"/>
<path d="M45.6667 89.1747L42.2314 86.3459L36.5676 93.2241L40.0028 96.0528L45.6667 89.1747Z" fill="#4B5051"/>
<g opacity="0.51">
<path d="M50.77 87.5C55.1993 87.5 58.79 83.9093 58.79 79.48C58.79 75.0507 55.1993 71.46 50.77 71.46C46.3407 71.46 42.75 75.0507 42.75 79.48C42.75 83.9093 46.3407 87.5 50.77 87.5Z" fill="white"/>
</g>
<g opacity="0.86">
<path d="M49.9501 78.87C51.4136 78.87 52.6 77.6836 52.6 76.22C52.6 74.7565 51.4136 73.57 49.9501 73.57C48.4865 73.57 47.3 74.7565 47.3 76.22C47.3 77.6836 48.4865 78.87 49.9501 78.87Z" fill="white"/>
</g>
<path d="M50.77 87.5C55.1993 87.5 58.79 83.9093 58.79 79.48C58.79 75.0507 55.1993 71.46 50.77 71.46C46.3407 71.46 42.75 75.0507 42.75 79.48C42.75 83.9093 46.3407 87.5 50.77 87.5Z" stroke="#4B5051" stroke-width="1.88" stroke-miterlimit="10"/>
<path d="M50.9799 136.49L68.3299 128.43L36.2399 90.68L34.1599 92.45L50.9799 136.49Z" fill="#C67C2C"/>
<path d="M107.11 63.82H80.03V90.9H107.11V63.82Z" fill="#F6BE73"/>
<path d="M98.75 70.2C98.39 70.2 98.11 69.91 98.11 69.56C98.11 69.21 98.4 68.92 98.75 68.92C99.1 68.92 99.39 69.21 99.39 69.56C99.39 69.91 99.1 70.2 98.75 70.2ZM98.75 68.99C98.44 68.99 98.18 69.24 98.18 69.56C98.18 69.88 98.43 70.13 98.75 70.13C99.07 70.13 99.32 69.88 99.32 69.56C99.32 69.24 99.06 68.99 98.75 68.99ZM98.46 69.17H98.83C99.03 69.17 99.07 69.32 99.07 69.38C99.07 69.46 99.03 69.53 98.96 69.56C99.03 69.58 99.06 69.61 99.06 69.75C99.06 69.86 99.06 69.89 99.09 69.9V69.92H98.92C98.92 69.92 98.9 69.85 98.9 69.77C98.9 69.66 98.9 69.63 98.78 69.63H98.62V69.92H98.47V69.18L98.46 69.17ZM98.79 69.5C98.87 69.5 98.91 69.48 98.91 69.39C98.91 69.35 98.89 69.29 98.8 69.29H98.6V69.49H98.78L98.79 69.5ZM99.27 74.23C99.27 71.04 96.69 68.47 93.51 68.47C90.33 68.47 87.75 71.05 87.75 74.23C87.75 77.41 90.33 79.99 93.51 79.99C96.69 79.99 99.27 77.4 99.27 74.23Z" fill="#1E1E1E"/>
<path d="M97.5 77.63C98.27 76.72 98.74 75.51 98.74 74.22C98.74 73.57 98.63 72.95 98.41 72.38C97.7 70.43 95.76 68.97 93.56 68.97H93.41C93 68.99 92.59 69.06 92.26 69.16C92.11 69.21 91.54 69.4 91.14 69.82C90.71 70.27 90.45 70.87 90.45 71.54C90.45 72.63 91.2 73.52 92.21 73.93C92.64 74.1 93.11 74.21 93.46 74.3C94.06 74.45 95.34 74.66 96.39 75.36L96.43 75.38C97.09 75.84 97.49 76.49 97.49 77.57M94.29 73.82C93.53 73.82 92.92 73.2 92.92 72.45C92.92 71.7 93.54 71.08 94.29 71.08C95.04 71.08 95.66 71.7 95.66 72.45C95.66 73.2 95.04 73.82 94.29 73.82Z" fill="#00B9E4"/>
<path d="M88.25 74.23C88.25 72.84 88.8 71.56 89.69 70.62C89.58 70.91 89.41 71.44 89.41 72.06C89.41 72.76 89.61 73.59 90.34 74.34L90.47 74.48C91.49 75.56 92.41 76.53 92.41 77.81C92.41 78.25 92.3 78.73 92.05 79.26C89.86 78.64 88.25 76.63 88.25 74.24" fill="#BED600"/>
<path d="M85.52 64.74V58.99C85.52 54.54 89.12 50.94 93.57 50.94C98.02 50.94 101.62 54.54 101.62 58.99V64.74" stroke="#F6BE73" stroke-width="1.05" stroke-miterlimit="10"/>
</g>
</svg>
