<svg width="93" height="30" viewBox="0 0 93 30" fill="none" xmlns="http://www.w3.org/2000/svg">
<g clip-path="url(#clip0_186_695)">
<path d="M11.334 16.1931C11.418 15.913 11.5581 15.801 11.8101 15.885L11.334 16.1931Z" fill="#3A9AAF"/>
<path d="M84.5136 13.8405C84.4576 13.8686 84.4296 13.8966 84.3736 13.9246L84.4576 13.9806C84.4856 13.9526 84.5416 13.9246 84.5416 13.8966C84.5416 13.8966 84.5416 13.8686 84.5136 13.8405Z" fill="#3A9AAF"/>
<path d="M84.0095 14.2887C84.0655 14.1766 84.2055 14.1206 84.2896 14.0646C84.3176 14.0366 84.3736 14.0366 84.4016 14.0086L84.2335 13.9806C84.1495 14.0366 84.0655 14.0926 83.9815 14.1766L83.8695 14.2607H83.9255C83.9535 14.2607 83.9815 14.2887 84.0095 14.2887Z" fill="#3A9AAF"/>
<path d="M79.3045 28.1236H79.3605C79.4165 28.1236 79.4445 28.1236 79.5005 28.0956C79.5566 28.0956 79.6126 28.0676 79.6686 28.0676H79.7526C79.8646 28.0956 79.9486 28.1516 80.0607 28.2076L80.1447 28.2356C80.2007 28.2636 80.2287 28.2916 80.2847 28.3196V28.2076H80.6768C80.6488 28.2076 80.6208 28.1796 80.6208 28.1796C80.5088 28.1236 80.4247 28.0676 80.3127 28.0396C80.2567 28.0396 80.2287 28.0116 80.1727 28.0116C80.0327 27.9836 79.8926 27.9276 79.7526 27.9276C79.5566 27.9276 79.3605 27.8715 79.1925 27.8155C79.1085 27.7875 79.0244 27.7595 78.9404 27.7595H78.9124C78.8564 27.8155 78.8004 27.8155 78.7724 27.8155C78.7444 27.8155 78.7164 27.8155 78.6884 27.7875V27.8435H78.6324L79.0805 28.1796L79.3605 28.1516L79.3045 28.1236Z" fill="#3A9AAF"/>
<path d="M91.5711 9.24757C91.6831 9.19156 91.8232 9.16356 91.9352 9.13555C92.0752 9.10754 92.2153 9.07954 92.3273 8.99552L92.3553 8.96751H92.4113L92.6353 8.8835V8.71546C92.6353 8.57543 92.6354 8.4354 92.7194 8.32338C92.8314 8.15534 92.8594 7.98731 92.8314 7.79126C92.8034 7.65123 92.7754 7.56722 92.7194 7.5112C92.6073 7.39918 92.4393 7.37117 92.2713 7.31516C92.1873 7.28716 92.0752 7.28716 91.9912 7.23114C91.9072 7.20314 91.8232 7.17513 91.7392 7.20314C91.6271 7.23114 91.5431 7.25915 91.4311 7.28716L91.095 7.37117C90.871 7.39918 90.6469 7.45519 90.4229 7.4832C90.0588 7.53921 89.7227 7.59522 89.3587 7.67924C89.0786 7.73525 88.7705 7.81927 88.4905 7.93129C88.3504 7.9593 88.2384 8.01531 88.0984 8.04332C87.7343 8.15534 87.3422 8.26737 86.9781 8.35138C86.9221 8.37939 86.8661 8.32338 86.8381 8.32338L86.7821 8.29537V8.21135C86.7821 8.15534 86.8101 8.07132 86.8101 8.01531C86.8381 7.90329 86.8381 7.79126 86.8661 7.70725C86.8941 7.59522 86.9221 7.45519 86.9501 7.34317C87.0342 6.92308 87.1182 6.53099 87.1182 6.11091C87.0902 5.77483 87.0622 5.46677 87.0062 5.1587C86.9501 4.76662 87.0061 4.62659 87.3142 4.40254C87.3982 4.34653 87.4823 4.29052 87.5663 4.2065V4.01046L88.0144 3.89843C88.0424 3.89843 88.0704 3.87043 88.1264 3.81442C88.1824 3.7584 88.2664 3.70239 88.3504 3.70239C88.4625 3.67439 88.5465 3.59037 88.6025 3.50635C88.6585 3.42233 88.7145 3.36632 88.8265 3.31031C88.8265 3.2823 88.8545 3.22629 88.8545 3.17028C88.8545 3.14227 88.8545 3.11427 88.8825 3.08626C88.8825 3.05825 88.8825 3.00224 88.9106 2.97424C88.9106 2.94623 88.9106 2.89022 88.9386 2.86221C88.9666 2.69418 89.0226 2.49813 89.0786 2.30209C89.1066 2.24608 89.1906 2.07804 89.2466 2.05004L89.3026 2.02203L89.3587 2.05004C89.396 2.06871 89.4333 2.05004 89.4707 1.99403L89.5267 1.93801C89.4707 1.91001 89.4147 1.882 89.3867 1.854C89.2186 1.76998 89.1066 1.71397 88.9666 1.82599C88.8265 1.91001 88.6585 1.99403 88.5185 2.05004L88.3784 2.13406C88.2664 2.19007 88.1264 2.24608 88.0144 2.30209L87.3422 2.63816C87.1742 2.72218 87.0342 2.8062 86.8941 2.89022C86.7821 2.94623 86.6701 3.03025 86.5581 3.08626C86.502 3.11427 86.418 3.11427 86.362 3.05825L86.306 3.00224L86.362 2.89022H86.39C86.418 2.83421 86.474 2.77819 86.502 2.72218C86.6421 2.55415 86.7261 2.3301 86.7541 2.05004V1.99403C86.7821 1.71397 86.8101 1.46191 86.5861 1.29388C86.5301 1.26587 86.502 1.20986 86.474 1.15385V1.12584C86.306 0.78977 86.0259 0.50971 85.6339 0.313668C85.1858 0.0896206 84.7657 -0.0224034 84.3456 0.00560262H84.2056C83.9815 0.00560262 83.7575 0.00560261 83.5614 0.145632C83.4214 0.257656 83.2534 0.341674 83.0853 0.453698L82.9453 0.537716C82.9733 0.565722 83.0013 0.565722 83.0293 0.593728C83.0853 0.621734 83.1413 0.64974 83.1693 0.677746C83.2814 0.733758 83.3934 0.78977 83.5054 0.873788C83.7014 1.06983 83.8975 1.26587 84.0935 1.48992C84.1775 1.60194 84.2896 1.68596 84.3736 1.79799C84.5136 1.93801 84.5976 2.07805 84.5976 2.24608C84.5976 2.38611 84.5136 2.49813 84.4016 2.63816C84.1215 2.91822 83.8135 3.17028 83.5054 3.39433C83.5054 3.39433 83.5334 3.39433 83.5334 3.36632C83.6454 3.31031 83.7575 3.2543 83.8975 3.19828C84.1215 3.14227 84.3736 3.11427 84.6817 3.11427C84.9057 3.11427 85.1017 3.14227 85.2978 3.17028C85.3818 3.17028 85.4658 3.19828 85.5498 3.19828C85.6059 3.19828 85.6619 3.19828 85.7179 3.22629L86.0539 3.2823L85.8859 3.45034L86.6421 3.19828L86.278 3.50635L86.194 3.59037C86.138 3.64638 86.11 3.67439 86.0539 3.70239C85.8859 3.78641 85.7179 3.87043 85.5498 3.95445C85.3818 4.03846 85.2138 4.12248 85.0737 4.2065L84.6256 4.45855L83.3654 5.1307C83.3094 5.1587 83.2814 5.1587 83.2253 5.1587H83.1413L82.9453 5.18671L83.0293 5.04668C82.9173 5.07468 82.7772 5.1307 82.6932 5.18671L82.5812 5.27073C82.3572 5.38275 82.1331 5.52278 81.8811 5.6348C81.713 5.71882 81.545 5.77483 81.377 5.85885C80.9569 6.05489 80.5088 6.27894 80.0047 6.36296C79.6966 6.41897 79.3325 6.47498 78.9964 6.33495V6.36296C78.9404 6.50299 78.8844 6.67102 78.8564 6.83906V6.92308C78.8844 6.97909 78.9124 7.0071 78.9124 7.06311C78.9964 7.20314 79.0525 7.37117 79.0525 7.56722C79.0525 7.65123 79.1365 7.76326 79.2205 7.84728C79.5286 8.12734 79.8926 8.29537 80.3127 8.32338C80.5088 8.35138 80.7048 8.29537 80.9008 8.23936L80.9569 8.21135C81.2089 8.15534 81.433 8.09933 81.545 7.84728C81.573 7.76326 81.713 7.67924 81.797 7.70725C81.9371 7.73525 82.0771 7.67924 82.2171 7.59522C82.3011 7.53921 82.3852 7.4832 82.4972 7.45519C82.6092 7.42719 82.7212 7.37117 82.8333 7.28716L83.0013 7.20314L83.1413 7.11912V7.45519C82.9453 7.98731 82.9173 8.51942 82.8893 9.07954C82.8893 9.21957 82.8613 9.3596 82.8613 9.49963C82.8613 9.61165 82.8333 9.75168 82.8053 9.86371C82.7773 9.97573 82.7773 10.0878 82.7773 10.1998C82.7492 10.6199 82.7212 11.068 82.6932 11.4881V12.1602C82.6932 12.2442 82.6652 12.3282 82.6652 12.4122C82.6372 12.4963 82.6372 12.6083 82.6372 12.6923C82.6372 12.9444 82.6372 13.1964 82.6652 13.4205C82.6652 13.5885 82.6652 13.7565 82.6932 13.9526V14.0646C82.7212 14.2326 82.7212 14.4567 82.4692 14.5967C82.4692 14.5967 82.4412 14.6247 82.4132 14.6247C82.3945 14.6434 82.3758 14.6527 82.3572 14.6527C82.3011 14.6807 82.2451 14.7087 82.1891 14.7648C82.0771 14.8208 81.9651 14.9048 81.8811 14.9608C81.713 15.0728 81.573 15.2128 81.405 15.3249C81.2369 15.4649 81.0689 15.6049 80.8728 15.717C80.7608 15.801 80.6768 15.857 80.5648 15.913C80.4808 15.969 80.4247 15.997 80.3407 16.053C80.2847 16.081 80.2287 16.137 80.2007 16.1651C80.1167 16.2211 80.0327 16.3051 79.9486 16.3611C79.6126 16.5291 79.3885 16.7532 79.2485 17.0612C79.1925 17.2013 79.2485 17.5653 79.3605 17.6494C79.4165 17.6774 79.5006 17.7054 79.5566 17.7334C79.5846 17.7334 79.6406 17.7614 79.6686 17.7614C79.9486 17.8734 80.2567 17.8174 80.5368 17.7894C80.5928 17.7894 80.6768 17.7614 80.7328 17.7614C80.7608 17.7054 80.7888 17.6494 80.8448 17.6214C80.9009 17.5934 80.9849 17.6214 81.0409 17.6214H81.0689L81.2089 17.4253L81.2929 17.5653C81.2929 17.5934 81.3209 17.5934 81.3209 17.5934L81.405 17.5093H81.489C81.601 17.5093 81.713 17.5093 81.797 17.4813C81.9651 17.4253 82.1611 17.3413 82.3292 17.2853C82.4692 17.2293 82.6372 17.1733 82.7773 17.1173C82.9173 17.0612 83.0573 17.0332 83.1693 17.0052C83.3654 16.9492 83.5614 16.8932 83.7575 16.8092C83.9535 16.7252 84.1495 16.6692 84.3456 16.5851C84.5976 16.5011 84.8777 16.4171 85.1297 16.2771C85.3258 16.1651 85.5778 16.109 85.7739 16.053C85.8579 16.025 85.9419 15.997 86.0259 15.997C86.082 15.969 86.138 15.969 86.166 15.969H86.39L86.334 16.109C86.334 16.1277 86.3247 16.1464 86.306 16.1651C86.306 16.1931 86.278 16.2491 86.25 16.2771L85.9419 16.5851C85.7459 16.7812 85.5498 16.9772 85.3538 17.2013C85.1578 17.4253 84.9337 17.6494 84.7377 17.8734L84.5136 18.0975C84.4296 18.2095 84.3176 18.2935 84.2336 18.4055L84.0935 18.5456C83.9535 18.6856 83.8415 18.8536 83.7014 18.9937C83.6454 19.0497 83.5894 19.1337 83.5334 19.1897C83.3654 19.3857 83.1973 19.5538 83.0013 19.7218C82.5812 20.1139 82.3852 20.506 82.4412 20.9541C82.4412 21.0661 82.5252 21.1781 82.6092 21.2621C82.6932 21.3181 82.8053 21.3462 82.8893 21.3182L83.3934 21.1501L83.4214 21.0101L83.5894 21.0941C83.8975 20.618 84.2056 20.1699 84.7377 19.8898C85.2138 19.6658 85.6899 19.6658 86.138 19.6378H86.6141L86.5581 19.7778C86.502 19.9179 86.446 20.0019 86.334 20.1139C86.222 20.2259 86.11 20.3659 85.9979 20.478C85.8859 20.59 85.7739 20.73 85.6619 20.842C85.6058 20.8981 85.5498 20.9541 85.5218 21.0101C85.4098 21.1501 85.2978 21.2901 85.1578 21.3742C84.9617 21.4862 84.8497 21.6262 84.7937 21.8503C84.7657 21.9063 84.7377 21.9343 84.7097 21.9903C84.5976 22.1023 84.5696 22.2984 84.6536 22.4384C84.8217 22.6904 84.9897 22.9145 85.2978 22.9145H85.3818C85.4938 22.9145 85.6059 22.9425 85.7179 22.9145C85.7459 22.9145 85.8019 22.8865 85.8579 22.8305C85.8859 22.8025 85.9419 22.7745 85.9699 22.7465C86.0259 22.7184 86.0539 22.6904 86.11 22.6624C86.25 22.5784 86.39 22.4944 86.53 22.4384C86.6421 22.3824 86.8381 22.3264 87.0342 22.3544C87.1462 22.3824 87.2302 22.4384 87.3142 22.4664C87.3982 22.5224 87.4823 22.5504 87.5383 22.5784C87.8463 22.6344 88.0424 22.8585 88.2384 23.0545L88.3784 23.1945C88.4905 23.3066 88.5465 23.5026 88.5465 23.6707C88.5465 23.7547 88.4905 23.8387 88.4625 23.8947C88.4345 23.9227 88.4065 23.9787 88.4065 24.0067C88.3784 24.0627 88.3784 24.1468 88.3504 24.2308C88.3224 24.3428 88.2944 24.4548 88.2384 24.5668C87.9584 25.127 87.6503 25.6591 87.1182 26.0232V26.0512C87.1182 26.0792 87.0902 26.1072 87.0902 26.1352C87.0342 26.2472 86.9501 26.3312 86.8661 26.4432L86.7541 26.6113L86.6421 26.4712C86.5861 26.5273 86.502 26.5833 86.446 26.6393C86.222 26.8073 85.9979 26.9754 85.7739 27.1434C85.6339 27.2554 85.4658 27.3394 85.2978 27.4235C85.2978 27.4235 85.2698 27.4235 85.2698 27.4515L85.5778 27.5355L85.2978 27.6475C85.2418 27.6755 85.1858 27.7035 85.1297 27.7035C85.0177 27.7315 84.9337 27.7875 84.8497 27.8155C84.8497 27.8155 84.8217 27.8715 84.7937 27.8996L84.7657 27.9276V27.9556C84.7657 28.0116 84.7377 28.0676 84.6817 28.0956L84.2616 28.2636L84.3176 28.3196L84.2616 28.4037C83.8975 28.7957 83.4214 28.8518 82.9733 28.8238H82.8333V28.7957C82.7772 28.8238 82.7212 28.7957 82.6652 28.7957L82.4692 28.7677C82.3011 28.7397 82.1611 28.7117 81.9931 28.7117H81.517C81.433 28.7117 81.3769 28.6557 81.3209 28.6277L81.2929 28.6557L81.2089 28.6277V28.7117L80.7048 28.7677C80.7328 28.7677 80.7608 28.7957 80.7888 28.7957C80.9008 28.8238 81.0409 28.8798 81.0969 28.9638C81.1529 29.0478 81.2369 29.0758 81.3489 29.0758H81.461C81.489 29.0758 81.545 29.1038 81.573 29.1318L81.685 29.1878L81.629 29.2718L81.9371 29.2999H81.9651L82.2731 29.3279C82.3011 29.2999 82.3292 29.2438 82.3852 29.2438C82.6092 29.2718 82.8613 29.2718 83.0853 29.2999H83.1693L83.1973 29.5519L82.8053 29.6079C82.9733 29.6359 83.1413 29.6919 83.2814 29.7479C83.3374 29.776 83.3654 29.832 83.3934 29.888V29.916L83.4214 29.972L83.5894 30V29.86L83.7014 29.888C83.7575 29.888 83.8135 29.916 83.8415 29.916C83.8975 29.944 84.0095 29.972 84.0375 29.944C84.0935 29.916 84.1775 29.916 84.2336 29.916H84.3176C84.3176 29.916 84.3176 29.888 84.2896 29.832L84.2616 29.6919H84.5696C84.5416 29.6919 84.5416 29.6639 84.5136 29.6639L84.3456 29.5799L84.2896 29.6079C84.0095 29.804 83.8135 29.6359 83.6734 29.4959L83.3094 29.1878L84.0655 29.3839H84.9337C85.1297 29.3839 85.3258 29.3559 85.4938 29.3279H85.5778C85.6059 29.3279 85.6339 29.3279 85.6619 29.2999C85.7179 29.2718 85.8019 29.2718 85.8859 29.2718C86.0259 29.2999 86.138 29.2999 86.278 29.2438V29.1598C86.278 29.0758 86.362 29.0198 86.446 28.9638C86.5581 28.9078 86.6981 28.9078 86.7821 28.9638C86.8008 28.9638 86.8101 28.9731 86.8101 28.9918C86.8101 28.9918 86.8101 28.9638 86.8381 28.9638C86.8381 28.9358 86.8661 28.9358 86.8661 28.9078L86.9501 28.8238C87.0061 28.7677 87.0342 28.7117 87.0902 28.6837C87.1182 28.6557 87.1742 28.6277 87.2022 28.5997C87.2302 28.5717 87.2582 28.5717 87.2862 28.5437C87.3422 28.5157 87.3702 28.4597 87.4262 28.4037C87.5103 28.3196 87.5943 28.2356 87.6783 28.1796C87.7343 28.1516 87.7623 28.1236 87.8183 28.0676C87.9023 27.9836 88.0144 27.8996 88.1824 27.8715C88.2664 27.8715 88.3784 27.7035 88.4345 27.6195C88.4905 27.5635 88.5185 27.4795 88.5465 27.4235C88.6025 27.3114 88.6585 27.1714 88.7705 27.0874C88.9946 26.8913 89.1066 26.6393 89.2186 26.3592C89.2746 26.2192 89.3306 26.1072 89.3867 25.9671C89.4427 25.8551 89.4707 25.7151 89.4987 25.6031C89.5267 25.5471 89.5267 25.463 89.5547 25.407C89.5267 25.351 89.5267 25.323 89.5267 25.267C89.5547 25.211 89.5827 25.155 89.5827 25.0709C89.6387 24.8749 89.7227 24.6789 89.8347 24.5108C90.1988 23.9787 90.1988 23.5306 89.8908 23.0265C89.6947 22.6904 89.3306 22.4664 89.0226 22.2423L88.9386 22.1863C88.6585 22.0183 88.3784 21.8503 88.0704 21.6822C87.9023 21.5982 87.7343 21.4862 87.5663 21.4022C87.5103 21.3742 87.4822 21.2621 87.4542 21.2341C87.4542 21.1781 87.4542 21.1501 87.4822 21.1221C87.8183 20.674 88.1824 20.3379 88.6025 20.1139C88.9106 19.9459 89.1066 19.7498 89.2466 19.5258C89.2746 19.4978 89.2746 19.4417 89.2746 19.3857C89.2746 19.3017 89.2746 19.2457 89.3026 19.1617C89.4147 18.9656 89.3306 18.7976 89.2186 18.6016L89.1346 18.4335C89.0786 18.2655 88.9106 18.2095 88.7425 18.1535C88.6865 18.1255 88.6585 18.1255 88.6025 18.0975C88.4625 18.0415 88.2944 18.0134 88.1264 18.0415C88.0144 18.0415 87.8743 18.0975 87.7623 18.1255L87.4262 18.2095C87.0342 18.2655 86.6421 18.3215 86.222 18.3775L85.5778 18.4615L85.6899 18.2935C85.7179 18.2655 85.7179 18.2375 85.7459 18.2095C85.7739 18.1535 85.8299 18.0695 85.8859 18.0134C86.082 17.8454 86.306 17.6774 86.502 17.5093C86.6701 17.3693 86.8381 17.2573 87.0062 17.1173C87.1462 17.0052 87.3142 16.8652 87.4542 16.7252C87.5383 16.6412 87.6503 16.5571 87.7343 16.4731C87.7903 16.4171 87.8463 16.3891 87.9023 16.3331C88.0144 16.2211 88.1544 16.109 88.2944 16.025C88.4905 15.913 88.6865 15.829 88.8825 15.745C88.9946 15.717 89.0786 15.6609 89.1906 15.6049C89.2746 15.5769 89.3586 15.5209 89.4147 15.4649L89.4987 15.4089C89.6667 15.2969 89.8348 15.1568 89.8628 14.9888C89.8908 14.7087 89.8348 14.3727 89.7507 13.9806C89.6667 13.6445 89.4427 13.4485 89.0506 13.3364V13.3645L88.9666 13.3925L88.8825 13.4765C88.7705 13.5605 88.6865 13.6445 88.6025 13.7005C88.5185 13.7565 88.4345 13.8406 88.3224 13.8406C88.0984 13.8966 87.9023 13.9246 87.6783 13.9526L87.5103 13.9806C87.2862 14.0086 86.9501 14.0646 86.7261 13.7845C86.6421 13.7005 86.6421 13.5885 86.6141 13.5045V13.3645C86.5861 13.2244 86.5581 13.1124 86.5581 12.9724C86.53 12.8323 86.6141 12.7763 86.6421 12.7483C86.7261 12.6923 86.8661 12.7203 86.9221 12.7483C86.9781 12.8043 86.9781 12.7763 87.0342 12.7203L87.1182 12.6363L87.0342 12.5243L87.1462 12.4683C87.3982 12.3282 87.6503 12.2162 87.9023 12.1042L87.8463 11.9642L87.9864 11.9361H88.0984C88.1264 11.9361 88.1544 11.9081 88.2104 11.9081V11.8801C88.2664 11.6561 88.4345 11.6561 88.5185 11.6281H88.6025C89.0786 11.376 89.3867 11.096 89.6107 10.8159L89.7227 10.6759C89.9468 10.3678 90.1988 10.0597 90.5349 9.86371C90.6189 9.80769 90.7029 9.77969 90.759 9.72368C91.067 9.52763 91.3191 9.3876 91.5711 9.24757ZM83.4214 15.5489L82.2451 15.4649L82.5252 15.2969C82.5812 15.2689 82.6372 15.2409 82.6372 15.2128C82.6372 15.2128 82.6092 15.1288 82.5812 15.0728L82.4692 14.8208L83.4494 15.2969L83.4214 15.5489ZM85.6059 6.22293C85.5778 6.50299 85.5498 6.81105 85.5218 7.09111V7.67924C85.5218 7.81927 85.5498 7.98731 85.5218 8.12734C85.4938 8.23936 85.4658 8.35138 85.4098 8.46341L85.3258 8.71546C85.2978 8.82749 85.2978 8.93951 85.2978 9.05153C85.2978 9.13555 85.2978 9.21957 85.2698 9.27558C85.2418 9.49963 85.2138 9.72368 85.1858 9.94772C85.1578 10.1718 85.1297 10.3958 85.1017 10.6199V10.9839L85.3538 11.04V12.1322C85.3538 12.2162 85.2978 12.2722 85.2418 12.3002C85.2138 12.3002 85.2138 12.3282 85.2138 12.3282L85.1017 12.4403V12.4122C85.0177 12.5803 84.8497 12.6643 84.7097 12.7483C84.6536 12.7763 84.6256 12.8043 84.5696 12.8323C84.5416 12.8603 84.4856 12.8884 84.4576 12.8884L84.5416 12.8603L84.6536 13.0564L84.3176 13.2804L84.5416 13.1964L84.4576 13.3645C84.5136 13.3364 84.5696 13.3645 84.6256 13.3925C84.6537 13.3925 84.6817 13.3645 84.7097 13.3645L85.2138 13.0564L84.9057 13.3645C84.9617 13.3925 85.0177 13.4205 85.0737 13.5045L85.1578 13.5885C85.1858 13.6165 85.2418 13.6445 85.2698 13.6725C85.3538 13.7565 85.3818 13.8966 85.3538 14.0086C85.2978 14.1486 85.1858 14.2606 85.0457 14.2887H84.9617L85.0457 14.4847L83.7014 14.9608L83.6454 14.9048C83.5054 14.7648 83.4774 14.5967 83.5894 14.4007L83.6454 14.4847C83.6734 14.4567 83.6734 14.4007 83.7014 14.3727L83.7295 14.1486C83.7295 14.0646 83.7575 13.9246 83.8695 13.8406C83.8975 13.8125 83.9255 13.8125 83.9535 13.7845L83.8695 13.7005L83.8135 13.7565L83.6454 13.5605L83.7295 13.4765L83.6454 13.5045V13.3645C83.6454 13.2244 83.6174 13.1124 83.6174 12.9724C83.5894 12.6643 83.5614 12.3562 83.5614 12.0482C83.5614 11.7121 83.5614 11.348 83.6174 10.9559C83.6734 10.4798 83.6734 10.0317 83.6174 9.55564C83.6174 9.3876 83.6174 9.21957 83.6454 9.05153C83.6454 8.96751 83.6734 8.8835 83.6734 8.79948C83.7014 8.65945 83.7014 8.51942 83.7014 8.35138C83.7294 8.15534 83.7295 7.9593 83.7575 7.76326C83.7855 7.45519 83.8415 7.11912 83.8975 6.78305C83.9255 6.64302 84.0655 6.559 84.0935 6.53099C84.1215 6.50299 84.1495 6.50299 84.1775 6.47498L83.9815 6.30695L84.3456 6.33495V6.22293L84.5416 6.19492C84.6817 6.16692 84.7937 6.13891 84.9337 6.11091C84.9897 6.0829 85.0457 6.05489 85.0457 6.02689C85.1578 5.77483 85.3818 5.83085 85.5218 5.85885L85.6059 5.88686V6.22293ZM89.5267 9.13555C89.5267 9.16356 89.4987 9.19156 89.4707 9.21957C89.2746 9.3876 89.0786 9.58365 88.8265 9.77969L88.7985 9.80769C88.3784 10.1718 87.9584 10.5078 87.5383 10.8719C87.3422 11.04 87.1182 11.208 86.8381 11.404C86.7821 11.46 86.6981 11.46 86.6421 11.46H86.53L86.502 11.348L86.474 11.18C86.446 11.04 86.446 10.8999 86.418 10.7599V10.7039C86.39 10.6199 86.362 10.5078 86.502 10.3678C86.53 10.3118 86.53 10.1718 86.53 10.0597V9.49963C86.5581 9.3876 86.6981 9.30359 86.7821 9.27558C86.8661 9.24757 86.9221 9.27558 87.0062 9.27558H87.1462C87.3422 9.24757 87.5663 9.21957 87.7903 9.16356C88.1824 9.07954 88.5465 8.99552 88.9386 8.9115L89.4427 8.79948L89.7787 9.24757L89.5267 9.13555Z" fill="#3A9AAF"/>
<path d="M78.4083 27.5915H78.4643V27.5635L78.4083 27.5915Z" fill="#3A9AAF"/>
<path d="M78.8284 28.2916C78.8284 28.3476 78.8284 28.3757 78.8564 28.4037V28.4597C78.8844 28.4597 78.9124 28.4877 78.9404 28.4877L79.1085 28.4597C79.0898 28.441 79.0805 28.4223 79.0805 28.4037L78.9404 28.2356L78.8284 28.2916Z" fill="#3A9AAF"/>
<path d="M81.405 28.2356L81.461 28.2076L81.377 28.1796V28.2356H81.405Z" fill="#3A9AAF"/>
<path d="M34.747 17.6494C34.775 17.6774 34.775 17.7054 34.775 17.7614C34.775 17.7614 34.747 17.7894 34.747 17.8174C34.831 17.7894 34.915 17.7334 34.9991 17.7054L34.859 17.6494H34.747Z" fill="#3A9AAF"/>
<path d="M35.5872 17.6494L35.5312 17.6774L35.6152 17.7054L35.5872 17.6494Z" fill="#3A9AAF"/>
<path d="M35.6432 21.0101C35.6432 21.0288 35.6432 21.0288 35.6432 21.0101C35.5592 21.0381 35.5032 21.0661 35.4471 21.0941L35.4751 21.1221L35.6432 21.0101Z" fill="#3A9AAF"/>
<path d="M43.6249 8.04332C43.6249 8.01531 43.6529 7.9593 43.6809 7.93129C43.7369 7.81927 43.7649 7.67924 43.7929 7.56721C43.8209 7.28715 43.7089 7.0351 43.4569 6.78305C43.4289 6.75504 43.4008 6.69903 43.3728 6.67102C43.3168 6.61501 43.2888 6.53099 43.2328 6.53099C43.1768 6.50299 43.1488 6.50299 43.0928 6.50299L43.1208 6.587L41.4404 6.69903L41.4964 6.559C41.5244 6.47498 41.5525 6.41897 41.5805 6.33495L41.6645 6.0829C41.6645 6.05489 41.6645 6.02689 41.6925 5.97087V5.91486L41.7205 5.88686L42.1966 5.1587V5.10269C42.2246 5.04668 42.2246 4.99066 42.2246 4.93465C42.2246 4.82263 42.1966 4.65459 42.3366 4.54257C42.3926 4.51456 42.4206 4.45855 42.4766 4.40254L42.1686 4.26251L42.5887 4.09447C42.57 4.0758 42.5607 4.05713 42.5607 4.03846C42.5327 4.01046 42.5327 3.92644 42.5887 3.87043C42.5887 3.84242 42.6447 3.78641 42.7007 3.78641C42.7847 3.78641 42.8127 3.7584 42.8407 3.64638C42.8687 3.56236 42.9247 3.47834 43.0088 3.42233L43.0368 3.39432C43.0088 3.33831 43.0088 3.31031 43.0088 3.25429C43.0088 3.17028 43.0928 3.11426 43.1488 3.08626C43.1768 3.05825 43.2048 3.05825 43.2048 3.03025C43.2608 2.94623 43.3168 2.8342 43.4008 2.75019C43.5129 2.61016 43.5969 2.44212 43.6809 2.30209V2.13405L43.7089 2.10605C43.7089 2.07804 43.7369 2.05004 43.7649 2.05004C43.7649 2.02203 43.7929 2.02203 43.7929 1.99402V1.85399C43.8209 1.65795 43.8209 1.48992 43.7929 1.32188C43.7369 0.957804 43.6249 0.677744 43.3728 0.481702C43.3168 0.42569 43.2048 0.397684 43.1768 0.42569C42.8967 0.56572 42.6727 0.70575 42.6167 0.957804C42.5887 1.04182 42.5607 1.12584 42.5047 1.23786C42.4206 1.37789 42.3366 1.54593 42.2526 1.68596C42.1686 1.82599 42.0846 1.99402 42.0005 2.13405L41.8325 2.47013C41.7205 2.66617 41.6085 2.86221 41.4964 3.08626L41.3284 3.33831C41.2444 3.45034 41.1604 3.59037 41.1044 3.70239C41.0203 3.87043 40.9643 4.03846 40.9083 4.2065C40.8243 4.40254 40.7683 4.59858 40.6843 4.76662C40.6563 4.85063 40.6002 4.93465 40.5722 5.04668C40.4882 5.27072 40.4042 5.52278 40.1802 5.71882C40.1802 5.74683 40.1802 5.77483 40.1522 5.77483C40.1241 5.85885 40.0681 5.97087 40.0401 6.05489L39.7881 6.64302C39.6761 6.95108 39.564 7.25915 39.452 7.62323C39.396 7.81927 39.452 8.01531 39.592 8.15534C39.648 8.21135 39.7321 8.23936 39.8161 8.29537C39.8441 8.32338 39.9001 8.32338 39.9281 8.35138C39.9468 8.35138 39.9654 8.36072 39.9841 8.37939C40.0681 8.40739 40.1522 8.4354 40.1522 8.51942C40.1522 8.54742 40.1802 8.57543 40.1802 8.57543H40.2642L40.3482 8.54742C40.4322 8.51942 40.5162 8.51942 40.6002 8.54742C40.7403 8.63144 40.8243 8.60343 40.9923 8.51942C41.0763 8.4634 41.1324 8.4354 41.2164 8.37939C41.3564 8.23936 41.5244 8.09933 41.8325 8.12733L41.9445 8.15534L41.8885 8.26736C41.8885 8.29537 41.8605 8.32338 41.8605 8.35138C41.8325 8.4354 41.8045 8.51942 41.7485 8.57543L41.4124 9.07954C41.2724 9.30358 41.1324 9.55564 40.9363 9.77969C40.7963 9.94772 40.6843 10.1438 40.5722 10.3398C40.4882 10.5078 40.4042 10.6479 40.2922 10.8159C40.0121 11.208 39.6761 11.6281 39.256 12.1322C39.1719 12.2162 39.0879 12.3002 38.9759 12.3842C38.8919 12.4403 38.8079 12.4963 38.7519 12.5803C38.6118 12.7483 38.4438 12.9164 38.3038 13.0844C38.1357 13.2804 37.9957 13.4485 37.8277 13.6165C37.6596 13.8125 37.4636 13.9806 37.2955 14.1486L36.9315 14.5127C36.9315 14.5127 36.9035 14.5407 36.9035 14.5687C36.9035 14.5967 36.8755 14.6527 36.8474 14.6807C36.7914 14.7647 36.7074 14.8208 36.6514 14.8768C36.6234 14.9048 36.5674 14.9048 36.5394 14.9328C36.5114 14.9328 36.4834 14.9328 36.4834 14.9608C36.3153 15.1288 36.1473 15.3249 35.9793 15.4929C35.8672 15.6329 35.7272 15.745 35.6152 15.885C35.4752 16.025 35.3631 16.165 35.2231 16.2771C35.1111 16.3611 35.0271 16.4731 34.915 16.5571L34.635 16.8372C34.4949 16.9772 34.3829 17.1173 34.2429 17.2293C34.1869 17.2853 34.1029 17.3413 34.0468 17.4253C33.8508 17.5934 33.6828 17.7614 33.5707 17.9574C33.4867 18.0975 33.4027 18.2375 33.3187 18.3495C33.1787 18.5456 33.0386 18.7416 32.9826 18.9656C32.9826 19.0217 32.9546 19.0497 32.9266 19.0497L32.8426 19.1337C32.7866 19.1897 32.7586 19.2457 32.7026 19.3297C32.6185 19.4978 32.5065 19.6658 32.4225 19.8618L32.3665 19.9739C32.3105 20.1139 32.2265 20.2259 32.2265 20.3659C32.1985 20.534 32.2545 20.702 32.2825 20.8701L32.3105 20.9541C32.3105 20.9821 32.3665 21.0381 32.3945 21.0661C32.4505 21.0941 32.5065 21.1221 32.5345 21.1501C32.6185 21.2061 32.7026 21.2341 32.7866 21.3181C32.8986 21.4302 32.9826 21.5702 33.0386 21.6822C33.0666 21.7102 33.0666 21.7382 33.0946 21.7662L33.3747 21.6542L33.4027 21.7662C33.4027 21.7849 33.412 21.8036 33.4307 21.8223C33.4307 21.8503 33.4307 21.8783 33.4587 21.9063C33.5147 21.9903 33.5427 22.0183 33.5707 22.0183C33.7668 22.0183 33.9348 22.0183 34.0749 21.9903C34.3829 21.9343 34.635 21.8503 34.775 21.5422L34.859 21.3742L34.943 21.5422C34.971 21.5142 34.9991 21.5142 35.0271 21.4862C35.1951 21.4488 35.2884 21.3555 35.3071 21.2061V20.9261L35.3631 21.0101C35.4471 20.842 35.5872 20.758 35.7272 20.702C35.8112 20.646 35.9233 20.618 35.9793 20.534L36.1753 20.3099L36.1473 20.618C36.1193 20.786 36.0633 20.8981 35.9793 20.9541L36.1193 21.0101L36.0913 21.0941C36.0633 21.2061 36.0353 21.3462 36.0073 21.4582L35.9233 21.7943C35.8392 22.1303 35.7552 22.4664 35.6712 22.7745C35.6432 22.9145 35.5592 23.0545 35.5032 23.1665C35.4471 23.2506 35.4191 23.3626 35.3631 23.4466C35.2511 23.7267 35.0551 23.9787 34.775 24.1468C34.4109 24.3708 34.0188 24.5388 33.6268 24.7069L33.5147 24.7629C33.2067 24.9029 32.8986 25.0429 32.6185 25.155C32.4785 25.211 32.3385 25.267 32.1985 25.351C32.1704 25.379 32.1144 25.379 32.0584 25.407C31.9744 25.435 31.8904 25.463 31.8064 25.519L31.6383 25.6871L32.3385 25.6591L32.3665 25.9111L32.0584 26.0512L32.1144 26.1352L32.3665 26.0792L32.4225 26.3312C32.5345 26.3312 32.6466 26.3872 32.7306 26.4432L32.8986 26.5553L32.8146 26.5833V26.7233L32.8706 26.8913H33.0106L33.0666 27.0874L32.8706 27.1994C32.8986 27.2274 32.9266 27.2834 32.9546 27.2834C32.9546 27.2834 32.9826 27.2834 33.0106 27.1994L33.0386 27.1434H33.0946C33.2347 27.1434 33.3467 27.0874 33.4867 27.0314C33.4867 27.0314 33.5147 27.0034 33.5707 27.0034C33.6548 27.0034 33.7388 26.9754 33.8508 26.9754C33.9628 26.9754 34.1029 26.9473 34.2149 26.9473H34.2709C34.4109 26.9193 34.579 26.9193 34.719 26.8633C34.775 26.8353 34.859 26.8073 34.915 26.7793C34.9991 26.7233 35.0831 26.6953 35.1951 26.6673C35.5592 26.5833 35.8112 26.4712 36.0073 26.3032C36.0913 26.2472 36.1473 26.1632 36.2313 26.0792L36.3713 25.9391C36.7354 25.6031 37.0155 25.239 37.1835 24.8749C37.4356 24.3148 37.7156 23.7267 37.8557 23.1105C37.8837 22.9425 37.9397 22.7465 37.9677 22.5784C38.0237 22.2984 38.0797 22.0183 38.1357 21.7662C38.1637 21.6822 38.1637 21.5702 38.1637 21.4582C38.1637 21.2621 38.1917 21.0941 38.2477 20.8981L38.3318 20.646C38.3598 20.534 38.4158 20.422 38.4718 20.3099L38.5278 20.1979L38.9479 19.4417C38.9759 19.3577 39.0879 19.3297 39.1159 19.3017C39.1999 19.2737 39.256 19.2457 39.34 19.2177C39.48 19.1617 39.62 19.1057 39.7321 19.0497C39.9001 18.9656 40.0961 18.8816 40.2642 18.8256C40.5162 18.7416 40.7403 18.6576 40.9363 18.5176C40.9923 18.4895 41.0203 18.4895 41.0763 18.5176C41.1324 18.4615 41.1604 18.4335 41.2164 18.4055L41.4684 18.2655C41.8605 18.0695 42.2526 17.8734 42.6727 17.6774C42.7007 17.6494 42.7287 17.6494 42.7287 17.6214V17.5653C42.6167 17.4533 42.6167 17.3133 42.6167 17.2293V17.1733C42.6167 17.1173 42.6167 17.0892 42.6447 17.0612V16.8652C42.6447 16.7532 42.6727 16.6411 42.6447 16.5571C42.6167 16.4451 42.5607 16.3331 42.4766 16.2211C42.4206 16.137 42.3926 16.053 42.3646 15.969C42.3086 15.829 42.1966 15.801 42.0005 15.829H41.9445L41.8605 15.6889L41.6365 15.6329V15.6889C41.6085 15.773 41.5525 15.801 41.4404 15.829H41.4124C41.3844 15.829 41.3284 15.857 41.3004 15.857C41.2164 15.941 41.1324 15.997 41.0483 16.081C40.9083 16.1931 40.7683 16.3331 40.6283 16.4451C40.3762 16.6411 40.1241 16.8092 39.8721 16.9772C39.7601 17.0612 39.648 17.1173 39.536 17.2013L39.48 17.2293L39.312 17.0892V16.9772C39.312 16.9212 39.312 16.8652 39.34 16.8372C39.368 16.7532 39.396 16.6692 39.396 16.6131C39.424 16.4731 39.48 16.3331 39.508 16.165C39.536 16.025 39.564 15.857 39.592 15.717C39.62 15.5489 39.648 15.4089 39.6761 15.2409C39.7041 15.1008 39.6761 14.9888 39.62 14.9328C39.564 14.8768 39.48 14.8488 39.368 14.8488C39.34 14.8488 39.284 14.8488 39.256 14.8768L39.1439 14.9048L38.8359 14.5407L38.9199 14.4847L38.9759 14.4287C39.0319 14.3727 39.1159 14.2886 39.1999 14.3167C39.312 14.3447 39.312 14.3167 39.368 14.2046C39.368 14.1766 39.396 14.1766 39.396 14.1486L39.1999 14.0926L39.424 13.9806C39.48 13.9526 39.508 13.9526 39.564 13.9246C39.62 13.8966 39.7321 13.8686 39.7601 13.8406C39.8161 13.7005 39.9001 13.6165 39.9841 13.5605L40.0681 13.4765C40.1522 13.3925 40.2362 13.3084 40.3482 13.2244C40.4042 13.1964 40.4322 13.1684 40.4882 13.1124C40.5442 13.0564 40.6002 13.0564 40.6563 13.0564H40.7123C40.9363 12.8323 41.1884 12.5523 41.4404 12.2722C41.4964 12.2162 41.5244 12.1322 41.5805 12.0202C41.6085 11.9642 41.6365 11.8801 41.6645 11.8241C41.8885 11.404 42.1126 10.9839 42.3646 10.5639C42.4766 10.3678 42.6167 10.1718 42.7287 9.97573L42.9808 9.55564C43.0368 9.47162 43.0648 9.3596 43.1208 9.27558C43.3448 8.79948 43.4849 8.4354 43.6249 8.04332ZM37.7156 16.4451C37.6876 16.5011 37.6596 16.5851 37.6316 16.6411C37.5476 16.8372 37.4916 17.0332 37.3236 17.2013C37.3236 17.2013 37.3235 17.2293 37.2955 17.2573C37.2955 17.2853 37.2675 17.3413 37.2395 17.3693C37.1835 17.4533 37.1275 17.5373 37.0995 17.5934C37.0435 17.6774 36.9875 17.7334 36.9595 17.8174L36.9315 17.8454C36.9035 17.9014 36.8474 17.9574 36.8474 18.0134C36.8755 18.2655 36.6794 18.3775 36.5394 18.4335L36.5114 18.4615C36.4834 18.4895 36.4274 18.4895 36.3994 18.5176C36.4274 18.5176 36.4554 18.5176 36.4834 18.5456H36.5394L36.7074 18.5736L36.5954 18.7136L36.5674 18.7416C36.5394 18.7696 36.5114 18.8256 36.4554 18.8536C36.3994 18.8816 36.3153 18.9096 36.2593 18.9376H36.2313L36.2593 19.1337L35.7832 18.7976C35.5032 18.9376 35.1951 19.0777 34.915 19.2457C34.859 19.2737 34.803 19.2737 34.747 19.2737H34.663L34.4389 19.3017L34.607 19.0497L34.1869 19.0777L34.3549 18.7976C34.3829 18.7416 34.4109 18.6856 34.4389 18.6576L34.523 18.4895L34.551 18.4055V18.3775H34.4669V18.2655C34.4669 18.1535 34.523 18.0695 34.579 18.0134C34.635 17.9294 34.635 17.9014 34.635 17.8734C34.4669 18.1255 34.3269 18.4055 34.1589 18.6576C34.1309 18.6856 34.1029 18.7136 34.0749 18.7136L33.9628 18.7696L33.9348 18.6296C33.8788 18.3495 34.0188 18.1535 34.1589 17.9574C34.1589 17.9574 34.1589 17.9294 34.1869 17.9294H34.0188L34.1029 17.7894C34.1029 17.7614 34.1309 17.7334 34.1589 17.7054L34.4669 17.5093C34.4669 17.4533 34.4669 17.4253 34.4949 17.3973L34.523 17.3693V17.2853L34.579 17.3133C34.663 17.2013 34.775 17.0892 34.859 17.0052V16.9772H34.887C35.0831 16.7532 35.2511 16.5851 35.4471 16.3891C35.4752 16.3611 35.5312 16.3331 35.5872 16.3611C35.5872 16.2771 35.6152 16.2211 35.6712 16.137C35.7552 16.025 35.8952 15.941 36.0353 15.913L36.3153 15.885L35.8392 16.3611H35.9513L35.7832 16.5011C35.7272 16.5571 35.6432 16.6411 35.5872 16.7252C35.4471 16.8932 35.3071 17.0892 35.0551 17.1173C35.0551 17.2013 35.0551 17.2573 35.0271 17.3133L35.3351 17.1173L35.3631 17.2573L35.5312 17.1733L35.6152 17.3413L35.7272 17.2013L35.7832 17.2573L35.8112 17.1733C35.8392 17.1733 35.8672 17.2013 35.8952 17.2013H35.9233L35.9513 17.1733C36.0073 17.1173 36.0913 17.0612 36.1193 17.0052C36.0913 16.9492 36.0913 16.8372 36.1473 16.7812C36.166 16.7625 36.1846 16.7532 36.2033 16.7532L36.2313 16.6972C36.2873 16.5571 36.4834 16.4451 36.5954 16.4171C36.6514 16.3891 36.7354 16.3611 36.8194 16.3611L36.7634 16.1931L36.8474 16.165C37.0715 16.109 37.2955 16.025 37.4916 15.969C37.5756 15.941 37.6036 16.025 37.6316 16.053C37.7156 16.3331 37.7436 16.4171 37.7156 16.4451Z" fill="#3A9AAF"/>
<path d="M18.6996 3.61837C18.7276 3.42233 18.7556 3.19828 18.7276 3.03024C18.6996 2.8062 18.6436 2.52614 18.6996 2.21807C18.6996 2.19007 18.6716 2.16206 18.6716 2.10605L18.6436 2.05004L18.5596 1.882C18.5316 1.85399 18.5316 1.79798 18.5035 1.76998C18.5035 1.74197 18.4755 1.74197 18.4755 1.71396C18.4755 1.68596 18.4475 1.68596 18.4475 1.65795L18.2515 1.26587L18.1675 1.09783C18.1395 1.04182 18.1115 1.01382 18.0555 0.957803C17.9714 0.873785 17.9154 0.817773 17.8594 0.677743C17.8314 0.621732 17.6914 0.509708 17.6634 0.509708C17.5513 0.509708 17.4673 0.481702 17.3833 0.453696C17.3273 0.42569 17.2713 0.42569 17.2153 0.42569C17.1873 0.453696 17.1593 0.453696 17.1593 0.481702C17.0752 0.537714 16.9912 0.593726 16.9352 0.649737C16.8792 0.705749 16.8232 0.789767 16.7392 0.873785C16.6271 1.01382 16.5431 1.12584 16.4031 1.23786C16.2351 1.34989 16.123 1.51792 16.011 1.65795C15.983 1.71396 15.927 1.74197 15.899 1.79798C15.843 1.882 15.759 1.96602 15.731 2.07804C15.6469 2.27408 15.5629 2.47013 15.4789 2.69417L15.3949 2.91822V2.94623C15.4509 3.17027 15.3389 3.33831 15.2549 3.47834C15.2268 3.50635 15.1988 3.56236 15.1988 3.59036C15.1988 3.61837 15.1708 3.64638 15.1708 3.67438C15.1428 3.73039 15.1148 3.7584 15.1148 3.81441V3.89843C15.1148 4.03846 15.1148 4.2345 14.8628 4.34653C14.8348 4.34653 14.8348 4.37453 14.8068 4.40254L14.9748 4.48656L14.4707 5.52278H14.4427L13.3224 9.02352L13.4065 9.16355L13.3224 9.21956C13.2104 9.27558 13.2104 9.35959 13.2104 9.49962C13.2104 9.58364 13.2104 9.66766 13.1824 9.75168C13.0704 10.1158 12.9584 10.4798 12.8743 10.8439C12.8183 11.04 12.7903 11.208 12.7343 11.404C12.7063 11.5441 12.6503 11.6561 12.6223 11.7961C12.5383 12.0482 12.4543 12.2722 12.4262 12.4963C12.3702 12.9724 12.0622 13.2524 11.7821 13.5045L11.6701 13.5605C11.6141 13.6165 11.5301 13.6445 11.474 13.6445C11.418 13.6725 11.39 13.6725 11.362 13.7005C11.11 13.8686 10.8859 14.0366 10.6339 14.2326L10.3258 14.4567L10.2698 14.5127L10.0737 14.3167L10.1578 14.1766C10.2138 14.0926 10.2698 13.9806 10.2978 13.8966V13.7845C10.2698 13.7005 10.2418 13.5605 10.3538 13.4485C10.3258 13.2244 10.4098 13.0284 10.4658 12.8323C10.4938 12.7763 10.5218 12.6923 10.5498 12.6363C10.6619 12.3002 10.7459 11.9641 10.8579 11.6561L10.9979 11.208C11.082 10.9559 11.166 10.7039 11.082 10.4518C11.026 10.3398 10.9699 10.1998 10.9139 10.0878C10.8859 10.0037 10.8299 9.94772 10.8019 9.8637C10.7459 9.77969 10.6899 9.72367 10.5779 9.72367C10.2978 9.69567 10.1018 9.77968 9.90571 9.91971C9.87771 9.94772 9.8497 9.97573 9.8497 10.0317C9.82169 10.0597 9.82169 10.1158 9.79369 10.1438C9.73768 10.2558 9.68166 10.3958 9.62565 10.5358C9.59765 10.6199 9.54164 10.7039 9.51363 10.7879L9.42961 11.04C9.4016 11.152 9.3736 11.236 9.31759 11.348C9.20556 11.5441 9.12155 11.7961 9.03753 12.0762C9.00952 12.1882 8.98152 12.3002 8.98152 12.3842C8.95351 12.5803 8.9255 12.7763 8.81348 12.9444C8.70146 13.1124 8.70146 13.3084 8.67345 13.5045C8.64544 13.6725 8.64544 13.8406 8.56143 14.0086C8.58943 14.0646 8.58943 14.1486 8.58943 14.2046C8.58943 14.3447 8.58943 14.5407 8.39339 14.6247C8.4494 14.7647 8.4214 14.8208 8.33738 14.9608C8.30937 15.0168 8.28137 15.1008 8.28137 15.1288C8.28137 15.1568 8.30937 15.1848 8.33738 15.2128L8.39339 15.2689L8.47741 15.3809L8.36538 15.4369C8.25336 15.4929 8.16934 15.5769 8.14134 15.6889C8.11333 15.745 8.11333 15.801 8.16934 15.885C8.25336 16.025 8.30937 16.165 8.33738 16.3051C8.39339 16.5011 8.47741 16.6972 8.64544 16.8372C8.81348 16.9492 8.98151 17.0612 9.14955 17.1453C9.23357 17.2013 9.34559 17.2013 9.42961 17.2293C9.45762 17.2293 9.48562 17.2573 9.54163 17.2573C9.56964 17.2573 9.56964 17.2293 9.59765 17.2293C9.68166 17.1733 9.76568 17.1172 9.8497 17.0892C9.87771 17.0612 9.90571 17.0612 9.90571 17.0612L9.87771 17.0332C9.8497 17.0052 9.79369 16.9212 9.82169 16.8372C9.8497 16.7812 9.90571 16.7532 9.96172 16.7532C9.87771 16.6411 9.82169 16.5011 9.82169 16.3611C9.82169 16.1931 9.87771 16.053 9.93372 15.885V15.857C9.98973 15.717 10.0737 15.6609 10.1298 15.6329C10.1858 15.6049 10.2698 15.6329 10.3258 15.6609L10.3538 15.6329C10.3818 15.6049 10.4098 15.6049 10.4658 15.5769C10.5498 15.5209 10.5779 15.5209 10.5779 15.4649C10.5779 15.3249 10.7739 15.2969 10.8019 15.2969C10.8859 15.2969 10.9139 15.3529 10.9699 15.4089L10.9979 15.4369C11.026 15.4649 11.026 15.4929 11.054 15.5209L11.138 15.6609L10.9699 15.773L11.166 15.941L11.222 15.885C11.334 15.801 11.474 15.6889 11.6141 15.6049C11.6421 15.6049 11.6701 15.5769 11.6981 15.5489C11.7821 15.4929 11.9221 15.3529 12.1182 15.4649C12.2022 15.5209 12.2862 15.5769 12.3422 15.6329C12.3702 15.6329 12.3702 15.6049 12.3982 15.6049C12.4823 15.5769 12.5663 15.5769 12.6783 15.6049C12.7623 15.6329 12.8743 15.6609 12.9864 15.6889C13.0144 15.6889 13.0424 15.6889 13.0704 15.717L13.3504 15.4929V15.745C13.4345 15.4649 13.5185 15.2408 13.5745 15.0168L13.6025 14.9048C13.6585 14.6247 13.7425 14.2886 14.1346 14.1486H14.1626C14.1906 13.9246 14.3867 13.8966 14.4987 13.8966H14.6947V14.1486C14.6947 14.2326 14.6667 14.3167 14.6667 14.4287C14.6387 14.5407 14.6387 14.6807 14.6107 14.7928C14.6107 14.7928 14.6107 14.8208 14.6387 14.8208C14.6667 14.8488 14.7227 14.8768 14.7507 14.8768C14.8068 14.9048 14.8348 14.9328 14.8908 14.9608C15.0028 15.0168 15.0868 15.1008 15.1708 15.1568L15.2549 15.1008C15.3109 15.0728 15.3389 15.0448 15.3669 15.0448C15.3949 15.0448 15.4229 15.0168 15.4229 15.0168C15.4509 14.9888 15.5069 14.9888 15.5069 14.9608C15.6469 14.8208 15.759 14.6807 15.899 14.5407L16.067 14.3727C16.095 14.3447 16.123 14.3447 16.123 14.3167L16.151 14.2886L16.2631 14.0926C16.4031 13.8686 16.5151 13.6165 16.6271 13.3925C16.8512 12.8603 17.0192 12.4122 17.1593 12.0202C17.2713 11.7121 17.3273 11.404 17.4113 11.124C17.4393 11.0119 17.4673 10.9279 17.4953 10.8159C17.6354 10.3118 17.8874 9.8357 18.1115 9.41561C18.2235 9.19156 18.3355 8.99552 18.4475 8.77147C18.6156 8.4354 18.5596 8.18334 18.3915 7.84727C18.3355 7.70724 18.2235 7.65123 18.0835 7.59522L17.9154 7.5112L17.8594 7.59522C17.7754 7.70724 17.6914 7.81927 17.6354 7.93129C17.4113 8.26736 17.1873 8.60343 16.9912 8.93951L16.8232 9.21956C16.6271 9.52763 16.4031 9.8357 16.2071 10.1718C16.151 10.2838 16.095 10.3678 16.039 10.4798C15.955 10.6479 15.843 10.8159 15.731 10.9839C15.4789 11.292 15.1428 11.5441 14.7507 11.7121C14.6947 11.7401 14.6387 11.7401 14.6107 11.7401L14.3027 11.6841L14.3307 11.5441V11.488C14.3307 11.432 14.3307 11.404 14.3587 11.348L14.4427 11.18C14.4987 11.068 14.5547 10.9839 14.5547 10.8999C14.5547 10.7319 14.5827 10.5919 14.6387 10.4518C14.6667 10.3958 14.6667 10.3398 14.6947 10.3118C14.7227 10.2278 14.7507 10.1438 14.8068 10.0878C14.8628 10.0037 14.9188 9.89171 14.9188 9.77968C14.9188 9.69567 14.9748 9.63966 15.0028 9.58364L15.0588 9.52763C15.0868 9.33159 15.1708 9.21956 15.3109 9.07953C15.3109 9.05153 15.3389 8.99552 15.3389 8.96751C15.2549 8.9115 15.1708 8.85549 15.1708 8.77147C15.1708 8.68745 15.2549 8.63144 15.3109 8.57543C15.3389 8.57543 15.3669 8.54742 15.3669 8.51942L15.4509 8.37939L15.4789 8.4354V8.37939C15.4789 8.23936 15.5069 8.12733 15.6189 8.07132C15.787 7.9873 15.843 7.87528 15.899 7.70724C15.899 7.67924 15.927 7.65123 15.927 7.62322C16.067 7.31516 16.2351 6.97909 16.4591 6.559C16.6832 6.16691 16.9352 5.80284 17.2713 5.46676C17.5793 5.1587 17.8594 4.87864 18.2795 4.7106C18.4195 4.65459 18.5035 4.57057 18.5316 4.45855L18.6156 4.03846C18.6156 3.89843 18.6716 3.7584 18.6996 3.61837Z" fill="#3A9AAF"/>
<path d="M10.7459 15.857L10.7179 15.913C10.7179 15.885 10.7179 15.857 10.7459 15.857Z" fill="#3A9AAF"/>
<path d="M55.0793 14.5407H55.2194C55.2194 14.5407 55.1914 14.5407 55.1634 14.5127L55.0793 14.5407Z" fill="#3A9AAF"/>
<path d="M59.5883 7.25916C59.6443 7.20314 59.7283 7.11913 59.8124 7.14713C59.9804 7.17514 60.0364 7.09112 60.1484 6.95109L60.2044 6.89508H60.2324C60.3165 6.86707 60.4005 6.81106 60.4565 6.78305C60.8486 6.33496 61.2126 5.99889 61.5767 5.74683C61.6327 5.71883 61.6888 5.63481 61.6888 5.6068C61.8008 5.1307 61.7728 4.6266 61.6327 4.20651C61.3807 3.47835 61.0166 2.7782 60.5685 2.16207C60.2604 1.74198 59.8964 1.26588 59.3082 1.04183C59.2802 1.04183 59.1962 1.01382 59.1962 1.01382C58.9442 1.12585 58.9162 1.3779 58.9162 1.46192C58.8882 2.10606 58.6921 2.69418 58.3 3.2263C58.16 3.42234 58.048 3.61838 57.9359 3.81442C57.7959 4.03847 57.6839 4.29052 57.4879 4.51457C57.4318 4.59859 57.3198 4.6546 57.2358 4.73862C57.2078 4.76662 57.1798 4.76662 57.1518 4.79463C57.1518 4.85064 57.1518 4.90665 57.0958 4.93466C56.9277 5.07469 56.8437 5.24273 56.7317 5.41076C56.7037 5.46677 56.6757 5.52279 56.6477 5.55079C56.5917 5.63481 56.5357 5.66282 56.4516 5.71883C56.4236 5.74683 56.3956 5.74683 56.3676 5.77484L56.3396 5.80285C56.3396 5.99889 56.1996 6.13892 56.1156 6.27895L56.0595 6.33496C55.9475 6.44698 55.8635 6.58701 55.7795 6.69904C55.6675 6.83907 55.5834 7.0071 55.4714 7.14713L55.4434 7.17514L55.6115 7.11913V7.23115C55.6115 7.25916 55.6395 7.34317 55.5834 7.37118C55.4434 7.56722 55.3314 7.76326 55.1914 7.95931C55.1634 8.01532 55.0513 8.09934 54.9673 8.04332V8.07133C54.9673 8.09934 54.9393 8.12734 54.9393 8.15535C54.9393 8.18335 54.9113 8.21136 54.9113 8.23937L54.7153 8.57544L54.6873 8.46341C54.6873 8.46341 54.6873 8.49142 54.6593 8.49142C54.6593 8.49142 54.6593 8.51942 54.6312 8.51942L54.5752 8.63145L54.4912 8.54743C54.4632 8.51943 54.4352 8.51942 54.4352 8.51942C54.4352 8.51942 54.4352 8.54743 54.4072 8.57544C54.4072 8.60344 54.3792 8.60344 54.3792 8.63145C54.2952 8.82749 54.1551 8.99553 54.0431 9.16356C53.8471 9.47163 53.651 9.77969 53.539 10.1438C53.511 10.1998 53.483 10.2278 53.455 10.2558L53.399 10.3118L53.371 10.2838C53.371 10.3118 53.343 10.3118 53.343 10.3398C53.315 10.3678 53.315 10.3958 53.287 10.4238C53.287 10.4518 53.259 10.4798 53.259 10.4798C53.2309 10.5078 53.2029 10.5639 53.1749 10.5919C53.1189 10.6479 53.0909 10.7039 53.0909 10.7599C53.0909 10.8159 53.0909 10.8439 53.0629 10.8999C53.0349 11.152 53.0069 11.404 52.7829 11.6281C52.6708 11.7401 52.6148 11.9362 52.5588 12.1322V12.1882C52.5308 12.3002 52.4748 12.4123 52.3908 12.4963C52.3348 12.5523 52.3067 12.6363 52.2787 12.6923C52.2227 12.8043 52.1667 12.9444 52.1107 13.0564C52.2227 12.9444 52.2787 12.8043 52.3628 12.6643C52.3908 12.6083 52.4188 12.5803 52.4468 12.5243C52.5028 12.4123 52.5588 12.3282 52.6148 12.2162L52.7268 11.9922L52.9509 12.0202L52.9789 12.0762C52.9789 12.0762 52.9789 12.1042 53.0069 12.1322C53.0349 12.1882 53.0629 12.2722 53.0069 12.3282C52.7829 12.5803 52.6708 12.8604 52.5588 13.1964C52.5308 13.3084 52.4748 13.3925 52.4468 13.5045C52.3908 13.6445 52.2787 13.7565 52.1947 13.8406C52.1387 13.8966 52.0547 13.8966 51.9987 13.8686H51.9707V13.7845L51.8867 13.7565L51.9427 13.6165C51.9707 13.5605 51.9707 13.5045 51.9987 13.4485C51.9707 13.5045 51.9427 13.5885 51.9147 13.6445L51.7746 13.9246C51.6906 14.0926 51.6066 14.2606 51.5226 14.4287C51.4666 14.5687 51.3826 14.6807 51.3265 14.8208C51.2705 14.9328 51.2425 15.0168 51.1865 15.1288L51.1305 15.2689C51.1025 15.3249 51.1025 15.3529 51.0745 15.4089C51.0465 15.4929 51.0185 15.5489 50.9905 15.6329C50.9625 15.717 50.8784 15.717 50.7944 15.717H50.7664L50.4023 16.5571C50.2063 17.0052 50.0103 17.4533 50.1223 17.9854C50.1503 18.0695 50.1783 18.1815 50.1783 18.2655V18.2935C50.2343 18.2935 50.2623 18.2935 50.2903 18.3215C50.3743 18.3775 50.3743 18.4615 50.4023 18.5176C50.4023 18.5456 50.4023 18.5736 50.4304 18.5736C50.4864 18.6576 50.4864 18.7136 50.5144 18.7976C50.5424 18.8536 50.5424 18.9096 50.5704 18.9376C50.5704 18.9376 50.6264 18.9657 50.6544 18.9657C50.6824 18.9657 50.6824 18.9657 50.7104 18.9937C50.7384 18.9657 50.7944 18.9657 50.8504 18.9657L50.9345 19.0497C51.1585 18.9937 51.2985 19.0217 51.4106 19.0777L51.4386 19.1057C51.4386 19.0777 51.4666 19.0777 51.4666 19.0497C51.5226 18.9937 51.6346 18.9937 51.6906 18.9937H52.4188L52.3908 19.3017L52.5028 19.3297L53.259 18.3775H53.2029L53.315 17.9294L53.371 17.9014C53.427 17.9014 53.455 17.8734 53.483 17.8454C53.511 17.5934 53.679 17.5654 53.7631 17.5654C53.8471 17.5654 53.8751 17.5373 53.9031 17.5373C53.9311 17.5093 53.9591 17.4533 53.9871 17.3693C53.9871 17.3693 53.9871 17.3413 54.0151 17.3413C53.9871 17.2853 53.9871 17.2293 54.0151 17.1733C54.0431 17.1173 54.1832 17.0052 54.2672 16.9492L54.4632 16.7532C54.4632 16.7345 54.4725 16.7252 54.4912 16.7252C54.5099 16.7252 54.5192 16.7065 54.5192 16.6692H54.4912L54.6312 16.4731C54.6312 16.4451 54.6593 16.4451 54.6593 16.4171C54.6873 16.3611 54.7433 16.2771 54.8273 16.3331C54.8833 16.3611 54.8833 16.3331 54.9393 16.2771L55.0233 16.1931C55.0513 16.1651 55.0793 16.137 55.1073 16.137C55.1354 16.109 55.1634 16.109 55.1914 16.081L55.4434 15.829C55.4714 15.801 55.4714 15.773 55.4994 15.717L55.5834 15.5489C55.6115 15.5209 55.6675 15.4929 55.6955 15.4649C55.7515 15.4276 55.7795 15.3902 55.7795 15.3529V15.2969C55.4434 15.5769 55.0793 15.885 54.6593 16.2491L54.5752 16.3331L54.5192 16.2491L54.4632 16.2771V16.3331H54.4072L53.8751 16.9212L53.8471 16.6972V16.5571C53.9031 16.3891 54.0431 16.2211 54.2392 16.1651C54.2672 15.997 54.3512 15.885 54.5192 15.801C54.5472 15.773 54.5752 15.773 54.6312 15.773C54.6873 15.745 54.7713 15.717 54.7993 15.689C54.8833 15.6049 54.9393 15.4929 55.0233 15.3809C55.0233 15.3809 55.0233 15.3529 55.0513 15.3529L54.7713 15.2409L54.6312 15.4089V15.1568C54.6312 14.9048 54.7993 14.6527 54.9953 14.5407L54.9673 14.5127C54.8833 14.4567 54.8553 14.4007 54.8273 14.3167C54.8273 14.2326 54.8833 14.1486 54.9393 14.0926C54.9673 14.0646 54.9953 14.0366 54.9953 14.0086C55.0513 13.9246 55.1354 13.8406 55.2194 13.8406C55.3034 13.8406 55.3594 13.8966 55.3874 13.9246L55.4994 13.8966L55.2194 13.7565L55.2474 13.6725C55.3594 13.4485 55.5554 13.4205 55.7515 13.3925C55.7795 13.3925 55.8355 13.3925 55.8635 13.3645L55.4714 13.0284L55.7235 12.7203C55.6955 12.7203 55.6675 12.6923 55.6675 12.6923C55.6395 12.6643 55.5834 12.5803 55.6115 12.4683C55.6675 12.2442 55.7515 12.0762 55.8915 11.9642C55.9475 11.9081 55.9475 11.8801 55.9195 11.8521L55.8915 11.7961L56.1436 11.376C56.1156 11.376 56.1156 11.404 56.0876 11.404L55.8915 11.4601L55.8075 11.18L55.9195 11.152C55.9475 11.152 55.9755 11.096 56.0035 11.068C56.0595 11.012 56.1156 10.9279 56.1996 10.9279C56.2556 10.9279 56.2836 10.9279 56.3396 10.9559L56.7597 10.5639L56.2556 10.4518L56.1716 10.5639L56.0876 10.5078L55.5834 11.012L56.2556 9.89172L56.5076 10.0878L56.2836 10.3958L56.4516 10.3398C56.5076 10.3398 56.5357 10.2558 56.5917 10.1998C56.6757 10.0878 56.8157 9.89172 57.0678 10.0037C57.1798 9.94773 57.2358 9.86371 57.2358 9.75169C57.2358 9.66767 57.3478 9.58365 57.4318 9.61166H57.4879C57.4879 9.61166 57.5159 9.55565 57.5159 9.49963C57.4879 9.24758 57.6279 9.16356 57.7399 9.07954C57.7679 9.05154 57.7959 9.05154 57.8239 9.02353L57.8519 8.99553C57.936 8.93951 57.992 8.8835 58.048 8.79948L58.076 8.74347C58.132 8.63145 58.216 8.51942 58.356 8.46341L58.244 8.3794L58.356 8.29538C58.412 8.26737 58.4681 8.21136 58.5241 8.15535C58.6361 8.04332 58.7481 7.90329 59.0002 7.90329C59.0842 7.90329 59.2802 7.76326 59.3082 7.65124C59.3362 7.42719 59.4763 7.37118 59.5883 7.34317C59.5603 7.31517 59.5603 7.25916 59.6163 7.23115C59.5603 7.28716 59.5603 7.25916 59.5883 7.25916ZM54.6873 13.5325L54.6032 13.6165L54.1271 13.0004L54.4072 13.0844C54.6593 13.1404 54.7713 13.1964 54.7993 13.3084C54.8273 13.3925 54.7713 13.4485 54.6873 13.5325ZM57.2638 8.8835C57.2358 8.93951 57.1798 8.93951 57.1238 8.93951L57.0118 8.96752L56.9837 8.8555C56.9837 8.79948 56.9557 8.77148 56.9837 8.74347C56.9837 8.68746 57.0118 8.63145 57.0118 8.57544L57.0398 8.43541L57.5159 8.09934L57.6839 8.23937L57.5719 8.4074C57.4879 8.54743 57.4038 8.71547 57.2638 8.8835ZM57.6559 8.96752L57.4318 8.82749L57.5439 8.65945C57.6279 8.51942 57.7119 8.3794 57.8239 8.26737C57.8799 8.21136 57.964 8.21136 58.02 8.21136H58.132L58.244 8.3794L57.6559 8.96752Z" fill="#3A9AAF"/>
<path d="M55.2474 14.9608L55.3034 15.0448V15.0728C55.3314 15.0728 55.3314 15.0448 55.3594 15.0168L55.5274 14.8488L55.4434 14.9048L55.5554 14.5127C55.4994 14.5407 55.4434 14.5407 55.3874 14.5407H55.3314L54.7713 15.1849L55.2474 14.9608Z" fill="#3A9AAF"/>
<path d="M64.6854 11.264L64.7134 11.208C64.7414 11.18 64.7414 11.124 64.7694 11.068C64.7974 10.9839 64.8534 10.8719 64.9374 10.8159C64.9935 10.7879 65.0495 10.7319 65.0775 10.6759L65.1615 10.5919C65.1895 10.5639 65.2175 10.5639 65.2455 10.5358C65.3015 10.5078 65.3575 10.4518 65.3575 10.4238C65.4416 10.1998 65.5536 10.0037 65.7216 9.8637C65.8896 9.72367 66.0017 9.52763 66.0857 9.30358C66.1137 9.21956 66.1697 9.13555 66.2257 9.05153C66.4218 8.68745 66.2257 8.35138 66.0297 7.9873L66.0017 7.93129C65.9457 7.81927 65.8056 7.70724 65.6936 7.59522C65.6656 7.56721 65.6096 7.53921 65.5816 7.5112C65.4135 7.65123 65.2735 7.70724 65.1335 7.67924C65.1055 7.73525 65.0495 7.79126 64.9935 7.81927C64.6574 7.90328 64.3493 7.90328 64.0693 7.84727L64.0973 8.09933H63.9852C63.9012 8.09933 63.8172 8.09933 63.7332 8.07132V8.15534C63.7052 8.23936 63.6212 8.32337 63.5371 8.37939C63.4811 8.40739 63.4251 8.40739 63.3691 8.40739H63.2851C63.2291 8.40739 63.1731 8.4354 63.0891 8.4634H63.1171L63.0891 8.54742C63.061 8.65945 63.005 8.68745 62.977 8.68745C62.893 8.68745 62.809 8.68745 62.753 8.63144L62.725 8.60343L62.669 8.65945C62.641 8.68745 62.6129 8.71546 62.5569 8.74346C62.5289 8.77147 62.5009 8.77147 62.5009 8.79947C62.4449 9.05153 62.2489 9.10754 62.1088 9.10754C61.9408 9.10754 61.8848 9.19156 61.8848 9.27558L61.8568 9.41561L61.7168 9.33159C61.6888 9.3876 61.6607 9.41561 61.6047 9.47162C61.5207 9.52763 61.4367 9.55564 61.3527 9.61165C61.2967 9.63965 61.2126 9.66766 61.1566 9.72367L61.1286 9.75168L61.0446 9.8357C60.8486 9.91971 60.6525 10.0037 60.4565 10.1158L60.9886 10.0317L60.5405 10.2838C60.4845 10.3118 60.4565 10.3398 60.4005 10.3678C60.2604 10.4798 60.0924 10.6199 59.8404 10.4798C59.8404 10.4798 59.8124 10.5078 59.7843 10.5078C59.7283 10.5358 59.7003 10.5919 59.6443 10.6199C59.5603 10.7039 59.4483 10.7879 59.3362 10.8439C59.3082 10.8439 59.2802 10.8719 59.2802 10.8719H59.2522V10.8999L59.2802 10.9279L59.2522 10.9839C59.2522 10.9839 59.2242 11.068 59.1402 11.068C59.0842 11.096 59.0002 11.152 58.9162 11.208C58.7761 11.32 58.6081 11.488 58.356 11.376H58.328L58.3 11.404L57.2918 12.0482C57.3198 12.0762 57.3478 12.1322 57.3478 12.1882C57.3478 12.2442 57.3198 12.3002 57.2918 12.3282L57.5439 12.3002L57.4879 12.4403C57.4879 12.4589 57.4785 12.4776 57.4598 12.4963C57.4598 12.5523 57.4318 12.6083 57.4038 12.6643C57.3758 12.7203 57.3478 12.7483 57.3198 12.7763C57.2918 12.8043 57.2638 12.8043 57.2638 12.8323C57.2078 12.8883 57.1798 12.9444 57.1238 13.0284C57.0398 13.1404 56.9838 13.2524 56.8717 13.3364C56.8157 13.3925 56.7597 13.4485 56.6757 13.5045H56.9277L56.9837 13.6725C57.0958 13.6165 57.2078 13.5885 57.3758 13.6445L57.5719 13.7005L57.1238 14.0646L57.2078 14.1206C57.2918 14.0646 57.3758 14.0646 57.4879 14.0646L58.216 13.4765L58.4121 13.6165L58.384 13.7005C58.384 13.7285 58.356 13.7565 58.356 13.7845C58.356 13.8406 58.328 13.8966 58.3 13.9246H58.328C58.5521 13.7845 58.7761 13.6725 59.0002 13.5605C59.0562 13.5325 59.1402 13.4765 59.1962 13.4205C59.3082 13.3084 59.4483 13.1964 59.6723 13.1684C59.7563 13.1684 59.8684 13.0844 59.9524 13.0004C60.0084 12.9444 60.0644 12.9164 60.1204 12.8603L60.2604 12.7763L60.2885 12.9444V13.0004C60.2885 13.0564 60.3165 13.1124 60.2885 13.1684L60.2604 13.1964L59.9244 13.7005C59.7843 13.8686 59.6163 14.0646 59.4483 14.2326C59.4203 14.2606 59.3923 14.2886 59.3643 14.3447C59.2802 14.4567 59.1682 14.5967 58.9442 14.5967V14.6527C58.9162 14.7647 58.8882 14.9328 58.6641 14.9888C58.6361 14.9888 58.5801 15.0448 58.5521 15.0728C58.384 15.2969 58.244 15.5489 58.076 15.773L57.0398 17.3133L56.7037 17.9014C56.5917 18.0975 56.4796 18.3215 56.3396 18.5175C56.1436 18.8256 55.9475 19.1617 55.7795 19.5258C55.6395 19.8618 55.4994 20.2259 55.3594 20.562L55.2474 20.87C55.2194 20.9261 55.2194 20.9541 55.2194 21.0101C55.1914 21.0941 55.1914 21.1501 55.1634 21.2341C54.9673 21.6822 54.9393 21.7662 55.0233 22.2703C55.0233 22.3264 54.9953 22.3544 54.9673 22.3824L54.9393 22.4944C54.9113 22.6344 54.8833 22.7465 54.8833 22.8865V24.0627C54.8833 24.1467 54.9113 24.2588 54.9113 24.3428C54.9113 24.3988 54.9113 24.4268 54.9393 24.4828V24.5948C54.9673 24.6789 54.9673 24.7349 54.9953 24.7909C55.0233 24.9309 55.0793 25.0709 55.1073 25.211C55.1354 25.519 55.2754 25.6871 55.5554 25.7711C55.6395 25.7991 55.6955 25.8271 55.7515 25.8831C55.7795 25.9111 55.8355 25.9391 55.8635 25.9671C55.9755 26.0231 56.0596 26.0512 56.1716 26.0512C56.2556 26.0512 56.3396 26.0792 56.4236 26.0792H56.5076L56.5637 25.9671L56.6477 25.9951C56.7037 26.0231 56.7317 26.0231 56.7597 26.0512C56.8157 25.9391 56.9277 25.8551 57.0678 25.8831C57.1798 25.9111 57.2638 25.9111 57.3758 25.9391V25.9111C57.3758 25.8831 57.4038 25.8551 57.4038 25.8551C57.4038 25.7991 57.4318 25.7431 57.4318 25.6871C57.4599 25.547 57.4879 25.435 57.4598 25.351C57.2918 25.0429 57.2638 24.7629 57.3198 24.3988C57.3478 24.2588 57.3478 24.1187 57.2918 24.0347C57.2638 23.9787 57.2078 23.9227 57.1518 23.8387L57.0678 23.7547C56.9557 23.6146 56.8157 23.3906 56.9277 23.1105V22.8025C56.9277 22.6344 56.9277 22.4384 56.9557 22.2703C57.0118 21.9623 57.0958 21.6822 57.1798 21.3742L57.2358 21.1221C57.2638 21.0381 57.2918 20.9261 57.3198 20.842C57.3198 20.814 57.3478 20.786 57.3478 20.758L57.1798 20.562L57.4038 20.506V20.45C57.4599 20.1979 57.4879 20.1139 57.5999 20.1139C57.6559 20.1139 57.6932 20.0859 57.7119 20.0299C57.7119 20.0112 57.7212 19.9925 57.7399 19.9739C57.7959 19.8058 57.8519 19.6378 57.936 19.4698C57.964 19.4137 57.992 19.3857 58.02 19.3577L58.048 19.3297C58.076 19.1897 58.104 19.1057 58.188 19.0777L58.132 19.0497L58.328 18.9096C58.272 18.8536 58.272 18.8256 58.3 18.7696C58.356 18.6576 58.4401 18.5736 58.4961 18.4895L58.6641 18.3215C58.6921 18.2935 58.7201 18.2655 58.7761 18.2375L58.8041 18.2095H58.8882C58.8882 18.2095 58.8882 18.1815 58.8601 18.0975C58.8321 17.9854 58.8601 17.8734 58.8882 17.7894C59.0002 17.5934 59.1122 17.3973 59.2522 17.1733C59.3082 17.0892 59.4203 17.0612 59.5043 17.0612C59.6163 17.0612 59.8124 16.9212 59.8404 16.8372C59.8404 16.8372 59.8404 16.8092 59.8684 16.7812C59.8684 16.7532 59.8964 16.7252 59.8964 16.7252C59.8964 16.7065 59.887 16.6878 59.8684 16.6692C59.8497 16.6505 59.8404 16.6318 59.8404 16.6131L59.7843 16.4171L60.0644 16.5011C60.2044 16.4731 60.2324 16.3891 60.2604 16.2211C60.2885 16.137 60.2885 16.081 60.3445 16.025L60.3725 15.997H60.5685V15.6609H60.8766C60.8766 15.6329 60.9046 15.6049 60.9326 15.5769C60.9886 15.4649 61.0726 15.3809 61.1846 15.2969C61.2407 15.2689 61.2967 15.2128 61.3527 15.1568C61.3807 15.1288 61.4367 15.1008 61.4647 15.0448L61.5487 14.9328H61.5207L61.4367 14.7087L61.9408 14.5687C61.9408 14.5127 61.9128 14.4567 61.9968 14.4007C62.0528 14.3727 62.0808 14.3167 62.1368 14.2886C62.1929 14.2326 62.2769 14.2046 62.3329 14.1486L62.669 13.8125L62.921 13.5605L62.977 13.5045L62.865 13.4765L63.005 13.3084C63.033 13.2804 63.061 13.2244 63.1171 13.1964C63.3038 13.0844 63.4065 12.9537 63.4251 12.8043V12.6923H63.5371C63.5558 12.6923 63.5745 12.6643 63.5932 12.6083C63.6212 12.5523 63.6772 12.4683 63.7612 12.4683C63.8452 12.4683 63.8732 12.4403 63.8732 12.4403C63.8732 12.4403 63.8452 12.3842 63.8452 12.3562C63.8452 12.3282 63.8172 12.3002 63.8172 12.2722L63.7892 12.2162L64.2093 11.9361V11.7121C64.2373 11.5721 64.3773 11.5441 64.4333 11.5441H64.4894C64.5454 11.46 64.6294 11.348 64.6854 11.264ZM58.3 18.3215C58.216 18.4335 58.16 18.5736 58.104 18.6856C58.048 18.7976 58.02 18.8816 57.992 18.9936C57.964 19.0777 57.936 19.1337 57.9079 19.2177C57.8799 19.3017 57.8519 19.3577 57.7679 19.3857C57.6279 19.4417 57.5439 19.6098 57.5439 19.7218C57.5439 19.9739 57.4038 20.0579 57.2918 20.1139C57.2638 20.1419 57.2078 20.1419 57.1798 20.1699L56.8437 20.478L57.0118 20.0579C57.3198 19.3297 57.7119 18.6296 58.16 18.0414L58.216 17.9574L58.356 18.0414H58.4961L58.3 18.3215ZM58.6081 16.5851C58.5801 16.6131 58.5521 16.6692 58.5521 16.6972C58.4961 16.7812 58.4681 16.8652 58.4121 16.9212C58.328 17.0332 58.244 17.1733 58.16 17.2853C57.964 17.5653 57.7679 17.8454 57.6279 18.1535C57.5999 18.2375 57.5439 18.2935 57.5159 18.3775C57.4318 18.5456 57.3478 18.7136 57.2358 18.8536C57.1798 18.9096 57.1518 19.0217 57.1238 19.1057C57.0958 19.1617 57.0958 19.2177 57.0678 19.2737V19.3017C57.0678 19.3577 57.0398 19.4137 56.9837 19.4417L56.8157 19.5258L56.6197 19.5818V19.3857C56.6197 19.3297 56.5917 19.2737 56.6477 19.2177L56.8997 18.7976C56.9557 18.7136 56.9837 18.6576 57.0398 18.5736C57.1238 18.4055 57.2358 18.2375 57.3198 18.0695C57.4879 17.7614 57.6559 17.4813 57.8519 17.1733C57.964 16.9772 58.104 16.8092 58.216 16.6411C58.272 16.5571 58.328 16.4731 58.4121 16.3891L58.4681 16.3051L58.6921 16.4451L58.6081 16.5851ZM60.9606 11.264L61.2967 10.8439C61.5487 10.5358 61.8568 10.3678 62.0528 10.4518L62.2489 10.5358L60.9606 11.264Z" fill="#3A9AAF"/>
<path d="M20.772 22.4104C20.772 22.4104 20.772 22.4384 20.772 22.4104L21.2201 22.5224C21.2761 22.5224 21.3321 22.5504 21.3601 22.5504C21.4162 22.5504 21.4442 22.5784 21.5002 22.5784C21.5562 22.5784 21.6402 22.6064 21.6962 22.6064C21.8362 22.6344 21.9763 22.6344 22.1163 22.6904C22.3123 22.7465 22.4524 22.8865 22.5924 23.0265L22.6764 23.1105C22.7884 23.2226 22.9285 23.3346 23.0685 23.4466C23.2365 23.5866 23.4046 23.7267 23.5446 23.8667C23.7126 24.0347 23.8807 24.2028 24.0207 24.3988C24.1327 24.5108 24.2168 24.6229 24.3288 24.7629L24.5528 24.9869C24.6088 25.0429 24.6648 25.099 24.7489 25.155L24.9729 25.379C25.1129 25.519 25.253 25.6591 25.393 25.7711C25.589 25.9111 25.8411 25.9951 26.0932 25.9391C26.2612 25.9111 26.4012 25.8551 26.5693 25.7711C26.6253 25.7431 26.6813 25.7151 26.7373 25.7151C26.8213 25.6871 26.8773 25.6031 26.9333 25.491L27.0174 25.323C27.1574 25.127 27.1014 24.9029 27.0734 24.7909C26.9053 24.3428 26.7373 23.9227 26.3732 23.6426C26.2892 23.5866 26.2332 23.5026 26.1772 23.4186C26.1212 23.3626 26.0932 23.3346 26.0651 23.2786C26.0371 23.2226 25.9811 23.1665 25.9531 23.1105C25.8691 23.0265 25.7851 22.9705 25.7011 22.9145C25.533 22.8025 25.393 22.6904 25.253 22.5224C25.0289 22.2704 24.8049 22.0463 24.4968 21.8223C24.3848 21.7382 24.2448 21.4582 24.3288 21.3462C24.4968 21.0381 24.7209 20.758 24.9169 20.534C25.309 20.0579 25.505 19.4978 25.533 18.8256C25.561 18.4055 25.449 18.0134 25.337 17.6214L25.309 17.5093C25.197 17.1453 25.1129 16.8092 24.8049 16.5571L24.6368 16.3891C24.5528 16.3051 24.4688 16.2211 24.3848 16.165C23.8247 15.857 23.2085 15.801 22.6764 15.829C22.3404 15.829 21.9763 15.885 21.5842 15.969H21.1921L21.2761 15.745C21.3041 15.6889 21.3321 15.6329 21.3321 15.5769C21.3601 15.4929 21.4162 15.4089 21.4442 15.3249C21.6402 14.9048 21.8362 14.4847 22.3404 14.3167L22.4804 14.1206C22.6204 13.9246 22.7604 13.7565 22.8725 13.5605C22.9005 13.5325 22.9005 13.4765 22.9285 13.4205C22.9285 13.3645 22.9565 13.3084 22.9845 13.2524C23.0405 13.1124 23.1245 12.9724 23.2085 12.8323C23.3486 12.5803 23.4886 12.3002 23.5726 12.0482C23.8527 11.292 24.1047 10.5358 24.2728 9.86371C24.4128 9.3596 24.4688 8.82748 24.4968 8.4354C24.5528 7.93129 24.4128 7.45519 24.2168 6.86707C24.1327 6.58701 23.9927 6.30695 23.7126 6.1109C23.4046 5.88686 23.0685 5.83084 22.7044 5.94287C23.1245 6.41897 23.2926 6.97909 23.2085 7.62323C23.1805 7.9873 23.0965 8.32338 23.0125 8.65945C22.9845 8.82748 22.9285 8.96751 22.9005 9.13555V9.21957C22.9005 9.27558 22.9005 9.33159 22.8725 9.3876C22.8445 9.49963 22.7884 9.58364 22.7604 9.69567C22.7044 9.8357 22.6484 9.97573 22.5924 10.1438C22.5084 10.3678 22.4804 10.6199 22.4244 10.8719C22.3964 11.012 22.3404 11.096 22.2843 11.208C22.2283 11.32 22.1723 11.404 22.1723 11.5161C22.1443 11.7121 22.0323 11.8801 21.9483 12.0482C21.9203 12.1042 21.8643 12.1882 21.8362 12.2442L21.5562 12.8043C21.3601 13.1964 21.1361 13.5885 20.9401 13.9806C20.884 14.0926 20.856 14.2046 20.8 14.3447L20.772 14.4567C20.744 14.5407 20.716 14.5967 20.688 14.6807C20.632 14.8488 20.576 15.0168 20.548 15.1848C20.492 15.829 20.3519 16.4171 20.1559 16.9212C20.1279 16.9772 20.0999 17.0892 20.1559 17.1733C20.1839 17.2293 20.2399 17.2573 20.3239 17.2853H20.3519C20.4079 17.2853 20.464 17.2853 20.52 17.3413C20.688 17.5093 20.8 17.6214 20.9961 17.5373H21.0241C21.0521 17.5373 21.1081 17.5093 21.1081 17.5093C21.1641 17.3133 21.2481 17.1453 21.2481 16.9772C21.3041 16.4731 21.5842 16.2211 22.0883 16.2211C22.2283 16.2211 22.3964 16.2211 22.5924 16.2771C23.0405 16.3611 23.3766 16.5291 23.6566 16.8092C24.0487 17.2013 24.0207 17.7334 23.9367 18.2095C23.8247 18.7976 23.6286 19.3017 23.3206 19.7218C23.1525 19.9739 22.9565 20.1979 22.7324 20.422C22.5364 20.618 22.3123 20.618 22.1723 20.562C22.0043 20.506 21.8362 20.478 21.6402 20.422C21.4722 20.394 21.3041 20.3659 21.1361 20.3659C20.9961 20.3379 20.884 20.3379 20.744 20.3099C21.0521 20.478 21.2481 20.758 21.3882 21.1221C21.4722 21.3742 21.4162 21.5422 21.3601 21.6262C21.3041 21.7102 21.1641 21.8223 20.912 21.8223C20.884 21.8223 20.856 21.8503 20.828 21.8503C20.772 21.8503 20.688 21.8783 20.632 21.9063C20.464 21.9623 20.2959 21.9903 20.1279 21.9903C19.9318 21.9903 19.7078 21.9343 19.5117 21.9063C19.5678 21.9343 19.5958 21.9343 19.6518 21.9623C19.9038 22.0743 20.1559 22.1583 20.3799 22.3264L20.548 22.4104L20.716 22.4944C20.744 22.2984 20.744 22.3544 20.772 22.4104Z" fill="#3A9AAF"/>
<path d="M66.5898 18.0695C66.5898 18.0415 66.5618 18.0134 66.5618 17.9854C66.5338 17.9294 66.5058 17.8454 66.4778 17.7894C66.4498 17.7614 66.4498 17.7334 66.4498 17.6774L66.4218 17.6214L66.3097 17.5654L66.4218 17.4533V17.3973C66.3938 17.3133 66.3938 17.2573 66.3658 17.2013C66.2537 17.0052 66.0297 16.8932 65.8056 16.7812L65.7216 16.7532C65.4976 16.6412 65.2455 16.6131 64.9655 16.5851H64.8534C64.2093 16.5291 63.5652 16.5571 62.977 16.6131H62.893C62.837 16.6131 62.725 16.6131 62.697 16.6412C62.5569 16.8372 62.3609 16.8652 62.2209 16.8652C62.1649 16.8652 62.1088 16.8652 62.0808 16.8932C61.9968 16.8932 61.8848 16.9212 61.8008 16.9212L61.7168 16.9492L61.2967 17.0332C61.2127 17.0612 61.1286 17.0612 61.0446 17.0892C60.9046 17.1173 60.7926 17.1173 60.7086 17.2573C60.6525 17.3413 60.5405 17.3973 60.4005 17.3973C60.3165 17.3973 60.2044 17.3413 60.1484 17.2853L59.8964 17.3413C59.7283 17.3693 59.5603 17.4253 59.3923 17.4533L59.3643 17.4813H59.3923C59.5043 17.5934 59.5883 17.7334 59.7003 17.8174C59.7283 17.8454 59.7844 17.9014 59.8404 17.9294C59.9524 17.9854 60.0924 18.0415 60.2044 18.0975C60.3445 18.1535 60.5125 18.2095 60.6525 18.2935L60.8206 18.3775C60.9046 18.4335 60.9886 18.4895 61.0726 18.4895C61.2967 18.5176 61.4647 18.5736 61.6328 18.6296C61.8568 18.7416 62.0808 18.7416 62.3329 18.7416H62.4729C62.725 18.7416 62.977 18.7136 63.2571 18.7136C63.3971 18.7136 63.5092 18.6856 63.6492 18.6856H63.8172L63.7332 18.8536C63.7052 18.9096 63.6772 18.9376 63.6772 18.9937C63.6212 19.1057 63.5652 19.2177 63.4811 19.3017C62.949 19.7498 62.4169 20.1699 61.8848 20.59C61.6888 20.758 61.4647 20.9261 61.2127 21.0661C60.9326 21.2341 60.6245 21.4022 60.3165 21.5422L60.2325 21.5982C60.1764 21.6262 60.1204 21.6542 60.0644 21.6542C59.9804 21.6822 59.8964 21.7102 59.8684 21.7382C59.8124 21.7943 59.7563 21.8223 59.7003 21.8503C59.5883 21.9063 59.5323 21.9343 59.5043 22.0183C59.4763 22.1023 59.3923 22.1023 59.3083 22.1023C59.2242 22.1023 59.1682 22.1023 59.0842 22.0743C58.9722 22.0743 58.8602 22.0463 58.7201 22.0463L58.6921 22.0743C58.6641 22.0743 58.6641 22.1023 58.6361 22.1023L58.6081 22.1303C58.5801 22.1583 58.5241 22.1863 58.4681 22.2143H58.104C58.132 22.2704 58.16 22.2984 58.132 22.3544C58.132 22.4384 58.076 22.4944 58.02 22.5224V22.5504C58.048 22.6344 58.076 22.6904 58.02 22.7745C58.02 22.8025 57.992 22.8305 57.992 22.8305H58.076C58.16 22.8305 58.244 22.8585 58.3 22.9145C58.4401 22.9985 58.5801 23.1105 58.6921 23.1946L58.8602 23.3066H58.9722C59.1682 23.3346 59.2802 23.4746 59.2802 23.6426C59.2802 23.7267 59.3083 23.7547 59.3923 23.8107C59.4763 23.8387 59.5323 23.9507 59.5883 24.0347C59.6163 24.0627 59.6163 24.0907 59.6443 24.1188C59.6723 24.1468 59.6723 24.1748 59.6723 24.2028C59.6723 24.2028 59.6723 24.2308 59.7003 24.2308C59.8684 24.3708 59.9804 24.4268 60.1204 24.3428C60.2044 24.3148 60.2605 24.3428 60.3445 24.3428C60.3725 24.3428 60.4005 24.3428 60.4005 24.3708H60.5125C60.5685 24.3708 60.6525 24.3708 60.7086 24.3428C60.7926 24.3428 60.8486 24.3148 60.9326 24.3148C61.0446 24.3148 61.1286 24.3428 61.2407 24.3708C61.3247 24.3988 61.4367 24.4268 61.5487 24.4268C61.6047 24.4268 61.6608 24.4268 61.6888 24.4548C61.8008 24.4828 61.9408 24.5108 62.0528 24.5108C62.1649 24.5388 62.3049 24.5668 62.4169 24.5668C62.4729 24.5668 62.5569 24.5949 62.613 24.5949C62.697 24.6229 62.753 24.6229 62.837 24.6509C62.921 24.6789 63.005 24.6789 63.1171 24.6789C63.3131 24.7069 63.5372 24.7069 63.7332 24.8189C63.8732 24.9029 64.0413 24.9029 64.1813 24.9309C64.2653 24.9309 64.3773 24.9589 64.4614 24.9589C64.4614 24.9589 64.5174 24.9309 64.5454 24.9309C64.5734 24.9029 64.6014 24.9029 64.6294 24.9029C64.6854 24.8749 64.7414 24.8749 64.7974 24.8469L65.2175 24.7629C65.2455 24.7629 65.2735 24.7629 65.3015 24.7349L65.4696 24.5949V24.4548C65.4696 24.3148 65.4416 24.1748 65.4976 24.0347C65.5256 23.8947 65.5816 23.7547 65.6376 23.6426C65.6656 23.5586 65.7216 23.4746 65.7496 23.4186C65.8056 23.2506 65.7496 23.1946 65.6376 23.0825L65.6096 23.0545C65.3856 22.8305 65.1615 22.6344 64.8814 22.5504C64.7414 22.4944 64.6574 22.4384 64.5454 22.3544C64.4333 22.2704 64.3213 22.1863 64.1813 22.1583C64.1253 22.1303 64.0973 22.1023 64.0973 22.0743L64.0693 22.0183L64.0973 21.9623C64.1813 21.8783 64.2653 21.7943 64.2933 21.6822C64.3213 21.5982 64.3773 21.5142 64.4614 21.4582L64.5454 21.3742C64.7974 21.0661 65.0495 20.8701 65.3015 20.758L65.2735 20.73L65.1335 20.562H65.3575C65.6096 20.562 65.7216 20.422 65.8056 20.2259C65.8617 20.0579 65.9457 19.8898 66.1417 19.8058L66.0857 19.6658L66.1977 19.4978C66.2537 19.3857 66.3097 19.3017 66.3658 19.1897V19.1057C66.3658 19.0497 66.3658 18.9656 66.4218 18.9096C66.5058 18.8256 66.5058 18.7136 66.4778 18.5736C66.4498 18.4615 66.4498 18.3495 66.4778 18.2375C66.6458 18.2375 66.6178 18.1535 66.5898 18.0695Z" fill="#3A9AAF"/>
<path d="M15.843 17.0612C15.927 16.9492 15.955 16.8652 15.927 16.7532C15.899 16.6411 15.843 16.5011 15.815 16.3891C15.787 16.3051 15.787 16.2211 15.815 16.137C15.815 15.997 15.815 15.913 15.7309 15.829L15.6469 15.773L15.6749 15.6889H15.3949V15.6049H15.2829C15.2548 15.5769 15.1428 15.4929 15.0868 15.4929C15.0028 15.4929 14.9188 15.4929 14.8628 15.5209C14.7507 15.5209 14.6667 15.5489 14.5547 15.5489H14.3587C14.2186 15.5489 14.0786 15.5489 13.9666 15.6329L13.9386 15.6609C13.6305 15.857 13.3224 16.025 13.2664 16.4171C13.2664 16.5011 13.1824 16.6131 13.1264 16.6411C13.0424 16.6972 12.9864 16.7532 12.9023 16.8092C12.6503 17.0052 12.3982 17.2013 12.1462 17.3693C11.7261 17.6214 11.278 17.9014 10.8299 18.1255C10.5498 18.2935 10.2698 18.4335 9.98972 18.6016C9.8777 18.6576 9.76568 18.7416 9.68166 18.7976C9.56963 18.8816 9.45761 18.9376 9.34559 19.0217C9.12154 19.1617 8.86949 19.2737 8.64544 19.4137L8.50541 19.4698C8.50541 19.5258 8.4774 19.5818 8.4774 19.6378C8.4774 19.6938 8.4774 19.7778 8.50541 19.8058L8.67344 19.9739L8.72946 20.0299C8.98151 20.2819 9.20556 20.3939 9.48562 20.2539L9.73767 20.1699C9.84969 20.1419 9.93371 20.1139 9.98972 20.0579C10.1578 19.8618 10.4098 19.8338 10.6059 19.8058C10.7459 19.7778 10.8859 19.7498 10.9979 19.6938C11.138 19.6098 11.334 19.5818 11.502 19.5538C11.5861 19.5538 11.6421 19.5258 11.7261 19.5258H11.9501L11.8941 19.7778H12.0342L11.9781 19.8898C11.9221 20.0579 11.8661 20.1979 11.8101 20.3379C11.7261 20.562 11.6421 20.758 11.5581 20.9821C11.446 21.2901 11.334 21.5702 11.222 21.8783C11.194 21.9903 11.138 22.1023 11.11 22.2143C11.054 22.3544 11.0259 22.4944 10.9699 22.6344C10.8299 22.9705 10.6899 23.2786 10.5498 23.5866C10.5218 23.6706 10.4938 23.7547 10.4378 23.8107C10.3538 24.0347 10.2698 24.2308 10.1298 24.4268C9.98972 24.6229 9.84969 24.7909 9.68166 24.9869C9.59764 25.0709 9.51362 25.155 9.45761 25.267V25.323L9.48562 25.491C9.51362 25.6591 9.51362 25.8271 9.54163 25.9951V26.0792C9.56963 26.1912 9.59764 26.3592 9.65365 26.3872C9.82169 26.5273 9.93371 26.6953 10.0457 26.8913C10.0737 26.8633 10.1298 26.8353 10.1578 26.8073C10.2698 26.7233 10.3258 26.6673 10.3258 26.5553C10.3258 26.4432 10.4658 26.3312 10.5498 26.3312C10.6899 26.3032 10.8019 26.3032 10.9419 26.3032C11.0259 26.3032 11.11 26.3032 11.194 26.2752L11.11 26.2192L11.446 25.7711L11.5301 25.9391C11.5581 25.8831 11.6141 25.8271 11.6421 25.7711C11.6701 25.7431 11.6701 25.6871 11.6981 25.6311C11.6981 25.5751 11.7261 25.547 11.7541 25.491C11.8101 25.379 11.8661 25.239 11.9501 25.099C12.0062 25.0149 12.0902 24.9029 12.1742 24.8189L12.2582 24.6789C12.2022 24.6789 12.1462 24.6509 12.1182 24.5948C12.0622 24.5108 12.1182 24.4268 12.1182 24.3708L12.1462 24.3148L12.3142 24.2868V24.2308C12.3142 24.1748 12.2862 24.1187 12.3142 24.0627V24.0067C12.3142 23.9227 12.3142 23.7547 12.5383 23.7267C12.5663 23.7267 12.6223 23.7267 12.5943 23.5866C12.5943 23.5026 12.6503 23.3346 12.7623 23.3066H12.7903V23.1665C12.7903 23.1385 12.7623 23.0825 12.8183 23.0265C12.9304 22.8865 13.0144 22.7184 13.0704 22.4664C13.1264 22.2704 13.2104 22.0743 13.2944 21.8783C13.3224 21.8223 13.3504 21.7662 13.3784 21.7382C13.3224 21.7102 13.2944 21.6542 13.2664 21.5982C13.2384 21.4862 13.2944 21.3742 13.3504 21.2621C13.4345 21.1221 13.4905 20.9261 13.5465 20.758L13.5745 20.674V20.422C13.6025 20.3099 13.6585 20.1699 13.7145 20.0579C13.7425 19.9459 13.7985 19.8618 13.8265 19.7498C13.8826 19.5818 13.9386 19.4137 13.9946 19.2177C14.0506 19.0497 14.1066 18.8816 14.1626 18.6856C14.1906 18.5736 14.2466 18.4335 14.3306 18.3215C14.4427 18.1535 14.6107 18.0695 14.7787 17.9574C14.9468 17.8734 15.0868 17.7614 15.1988 17.6214C15.2548 17.5373 15.3389 17.3973 15.5069 17.3973C15.5349 17.2573 15.6469 17.1733 15.7309 17.0892C15.787 17.1453 15.815 17.0892 15.843 17.0612Z" fill="#3A9AAF"/>
<path d="M48.4139 25.7711L48.1059 25.491H48.1899L48.1619 25.463L48.2459 25.267L48.666 25.351L48.638 25.323L48.778 25.211L48.89 25.239L48.834 25.211L48.918 25.0149C48.89 24.9869 48.834 24.9589 48.806 24.9589C48.75 24.9309 48.694 24.9029 48.666 24.8749C48.61 24.8469 48.554 24.7909 48.4699 24.7629C48.0778 24.6229 47.6858 24.4828 47.3217 24.3708C47.2657 24.3428 47.1817 24.3428 47.0976 24.3148C47.0696 24.3148 47.0416 24.2868 46.9856 24.2868C46.8736 24.2588 46.7896 24.2308 46.6775 24.2308C46.4255 24.1748 46.2014 24.1468 45.9494 24.0347C45.7534 23.9507 45.5573 23.8387 45.3893 23.7267L45.1372 23.5586C45.0812 23.5306 44.9972 23.5026 44.9412 23.4466L44.5211 23.2506C44.4651 23.2786 44.4371 23.2506 44.3811 23.2506C44.325 23.2226 44.269 23.1665 44.213 23.0825C43.961 22.9985 43.7369 22.9145 43.5129 22.7745C43.3728 22.6624 43.2328 22.5504 43.1208 22.4384C43.0648 22.3824 43.0088 22.3544 42.9808 22.2984C42.9528 22.2704 42.9248 22.2704 42.8687 22.2423C42.8127 22.2143 42.7287 22.1863 42.6727 22.1303C42.5887 21.9903 42.4486 21.9063 42.3366 21.8503C42.2806 21.8223 42.2246 21.7662 42.1406 21.7382L41.8885 21.4862C41.8045 21.3742 41.6925 21.2621 41.6085 21.2341C41.4684 21.1781 41.3284 21.0661 41.2164 20.9821C40.9923 20.814 40.7963 20.674 40.5162 20.702C40.4602 20.702 40.4042 20.674 40.3482 20.646C40.2922 20.59 40.2642 20.59 40.2642 20.59L40.2362 20.618C40.4042 20.702 40.4322 20.8981 40.4602 21.0101V21.0661C40.4602 21.0941 40.4602 21.1221 40.4882 21.1501C40.6563 21.2341 40.7123 21.3742 40.7403 21.5142C40.7403 21.5422 40.7683 21.5982 40.7683 21.6262C40.8523 21.7943 40.8803 21.9903 40.9083 22.1583L40.9363 22.2423C40.9643 22.3264 40.9643 22.4104 40.9643 22.5224C40.9923 22.6344 40.9923 22.7465 41.0203 22.8585L41.1884 23.3626C41.2444 23.5026 41.2724 23.6426 41.3284 23.7827C41.3564 23.8667 41.3844 23.9787 41.3844 24.0627C41.3844 24.1187 41.4124 24.2028 41.4404 24.2588C41.4404 24.2868 41.4684 24.3428 41.4964 24.3708C41.5245 24.3988 41.5245 24.4268 41.5245 24.4548C41.5245 24.4828 41.5525 24.5108 41.5525 24.5668C41.5805 24.6229 41.5805 24.6789 41.6085 24.7349C41.6365 24.7629 41.6645 24.8189 41.6925 24.8469L41.7205 24.8749C41.7765 24.9589 41.8045 25.0149 41.8325 25.099C41.8605 25.211 41.8885 25.295 42.0006 25.323C42.1406 25.379 42.3086 25.463 42.4486 25.6031C42.5047 25.6591 42.5327 25.7431 42.5887 25.8271V25.8551H42.6727C42.7847 25.8551 42.9247 25.8831 43.0368 26.0232C43.1488 26.1352 43.2888 26.2192 43.4849 26.3032C43.5969 26.3592 43.7369 26.4152 43.877 26.4432C43.961 26.4713 44.017 26.4993 44.101 26.5273C44.157 26.5553 44.185 26.5553 44.241 26.5833C44.4651 26.6673 44.6611 26.7513 44.8852 26.6673H44.9412C44.9412 26.6113 44.9692 26.5833 45.0252 26.5553C45.0812 26.5273 45.1372 26.5273 45.1932 26.4993C45.3613 26.4432 45.5293 26.3592 45.6973 26.3872C46.0054 26.4152 46.2575 26.3592 46.5375 26.2752C46.6215 26.2472 46.7056 26.2472 46.7896 26.2192C47.0136 26.1632 47.2377 26.1912 47.4337 26.1912H47.4617L47.3497 26.1352L47.5737 26.0512C47.6858 26.0232 47.7698 26.0232 47.8818 26.0232H48.0498L48.0218 25.9952L48.0498 25.7711H48.4139Z" fill="#3A9AAF"/>
<path d="M30.7422 13.3364C30.7702 13.1964 30.7982 13.0844 30.8262 12.9444C30.8542 12.8884 30.8542 12.8043 30.8542 12.7203C30.8542 12.5523 30.8822 12.3842 30.9662 12.2442C31.0782 12.0762 31.1062 11.9081 31.1623 11.7401L31.2463 11.404C31.3023 11.236 31.3583 11.04 31.4143 10.8439C31.4423 10.7039 31.4983 10.5639 31.5263 10.4238C31.5823 10.2838 31.6384 10.1438 31.6944 9.97573C31.7504 9.8357 31.8064 9.72368 31.8344 9.58365C31.9184 9.33159 32.0024 9.10754 32.0584 8.85549C32.1145 8.65945 32.1985 8.4354 32.2545 8.23936C32.3665 7.90329 32.5065 7.5112 32.6746 7.06311C32.7866 6.78305 32.8986 6.50299 33.0106 6.25094C33.0947 6.0829 33.1507 5.91486 33.2347 5.74683C33.3467 5.52278 33.4307 5.29873 33.5428 5.10269C33.7948 4.51457 33.9628 4.06647 34.1029 3.61837C34.2709 3.14227 34.4109 2.63816 34.551 2.16206C34.579 2.05004 34.551 1.91001 34.4389 1.79799C34.3269 1.68596 34.1869 1.60194 34.0749 1.60194C34.0749 1.60194 34.0189 1.65796 34.0189 1.68596C34.0189 1.74197 33.9909 1.79799 33.9909 1.882C33.9909 1.99403 33.9909 2.10605 33.9348 2.19007C33.8228 2.44212 33.7108 2.69418 33.5708 2.94623C33.5148 3.05825 33.4587 3.14227 33.4307 3.2543L33.1507 3.81442C32.9266 4.26251 32.7026 4.71061 32.4785 5.1587C32.3665 5.38275 32.2825 5.6348 32.1705 5.88686C32.1145 6.05489 32.0304 6.19492 31.9744 6.36296C31.9184 6.50299 31.8624 6.61501 31.8064 6.75504L31.5543 7.34317C31.4423 7.59522 31.3583 7.87528 31.2743 8.15534C31.2183 8.35138 31.1342 8.54743 31.0502 8.77147C30.9662 8.99552 30.8822 9.24757 30.7702 9.47162C30.7142 9.63966 30.6301 9.80769 30.5741 9.97573C30.5461 10.0317 30.5181 10.1158 30.5181 10.1718C30.4901 10.2278 30.4901 10.2838 30.4621 10.3398C30.4341 10.4238 30.4061 10.4798 30.3781 10.5639C30.3221 10.6759 30.2941 10.7879 30.2661 10.9279C30.2381 11.04 30.21 11.18 30.154 11.292C30.126 11.432 30.07 11.5721 30.042 11.7121C30.014 11.7961 29.986 11.8801 29.958 11.9361C29.93 11.9922 29.902 12.0762 29.874 12.1322C29.846 12.1882 29.846 12.2442 29.846 12.3002C29.846 12.3842 29.818 12.4403 29.79 12.5243C29.7339 12.6923 29.6779 12.8884 29.5939 13.0564C29.5659 13.1684 29.5099 13.2524 29.4819 13.3645V13.4485L29.3979 13.8966L29.4539 13.9526L29.3979 14.0086C29.3699 14.0366 29.3699 14.0646 29.3419 14.1206C29.3139 14.2046 29.2578 14.2606 29.2578 14.3167V14.6247C29.2578 14.7087 29.2298 14.8208 29.2018 14.9328C29.2018 14.9888 29.1738 15.0448 29.1738 15.1008V15.1568L29.3419 15.3529L29.1178 15.3809C29.2018 15.6609 29.1458 16.081 29.0058 16.3611L28.8658 17.2293L28.7537 17.0052V17.0892L28.6697 17.1453C28.7537 17.2853 28.7257 17.4253 28.6137 17.5653V18.2935C28.6137 18.4055 28.6137 18.4335 28.6697 18.4615C28.7537 18.4895 28.7537 18.5456 28.7537 18.5736V18.6016C28.7537 18.6296 28.7817 18.6576 28.7817 18.6576C28.8097 18.7136 28.8378 18.7696 28.8658 18.7696C29.0618 18.9096 29.2298 19.0497 29.4259 19.1897L29.5939 19.3017C29.6499 19.3297 29.7059 19.3857 29.762 19.4137H29.79C29.79 19.4137 29.818 19.4137 29.818 19.3857C29.846 19.3577 29.902 19.3297 29.93 19.3297C29.986 19.1057 30.042 18.8536 30.154 18.5736C30.182 18.5176 30.182 18.4335 30.154 18.3495V18.1815C30.154 17.9014 30.182 17.6494 30.21 17.3693C30.21 17.2013 30.2381 17.0332 30.2661 16.8652L30.2941 16.6412V16.6131C30.21 16.5011 30.2381 16.3891 30.2661 16.3051V16.2211C30.21 16.053 30.2381 15.941 30.2661 15.829C30.2661 15.801 30.2941 15.773 30.2941 15.717V15.4089C30.2941 15.3249 30.3221 15.2689 30.3221 15.2128L30.3501 15.0728H30.3781C30.3781 15.0168 30.4061 14.9328 30.4061 14.8768C30.4061 14.8208 30.4341 14.7648 30.4341 14.7087C30.4621 14.5967 30.4901 14.4847 30.4901 14.3447V14.1766C30.4901 14.0646 30.4901 13.9526 30.5461 13.8686C30.6021 13.7565 30.6021 13.7005 30.5741 13.6165C30.5461 13.5605 30.5741 13.5045 30.5741 13.4765L30.7422 13.3364ZM29.93 14.6247L29.6779 14.5687L29.874 13.7285L30.154 13.8125L29.93 14.6247Z" fill="#3A9AAF"/>
<path d="M5.70481 16.5011C5.84484 16.3891 5.98487 16.2491 6.1249 16.109L6.32095 15.913C6.37696 15.829 6.46098 15.773 6.51699 15.7169L6.573 15.6609C6.79705 15.4649 6.99309 15.2689 7.10511 14.9888C7.13312 14.9328 7.13312 14.8488 7.13312 14.7647C7.07711 14.1206 6.60101 13.7845 6.1249 13.4205L5.6208 13.0844L5.50877 13.0284C5.39675 12.9444 5.25672 12.8603 5.11669 12.8043C5.08868 12.8043 5.08868 12.7763 5.06068 12.7763C5.08868 13.1124 5.03267 13.4485 4.86464 13.7565C4.80862 13.8686 4.72461 13.9806 4.64059 14.0926C4.50056 14.2886 4.36053 14.5127 4.33252 14.7367C4.33252 14.7928 4.27651 14.8208 4.2485 14.8488L4.2205 14.8768L4.13648 15.0448L4.05246 15.2128C4.02446 15.2689 3.99645 15.2969 3.96844 15.3249C3.94044 15.3529 3.94044 15.3529 3.94044 15.3809L3.85642 15.4929L3.82841 15.4369C3.7444 15.5489 3.68838 15.6609 3.63237 15.801C3.52035 16.025 3.40832 16.2491 3.21228 16.4171C3.18428 16.4451 3.18428 16.4731 3.18428 16.5011C3.18428 16.5291 3.15627 16.5851 3.12826 16.6131C3.10026 16.6411 3.07225 16.6972 3.07225 16.7532C3.04425 16.8652 2.98823 16.9772 2.87621 17.0332C2.87621 17.0612 2.87621 17.1172 2.8482 17.1453L2.59615 17.6494C2.56815 17.7054 2.54014 17.7894 2.51213 17.8454C2.42812 18.0134 2.3441 18.2095 2.20407 18.3495C2.00803 18.5456 1.868 18.7136 1.83999 18.9656C1.83999 19.0497 1.78398 19.1337 1.69996 19.1897L1.67195 19.2457C1.64395 19.3017 1.61594 19.3297 1.58794 19.3857C1.53192 19.4697 1.47591 19.5538 1.44791 19.6378C1.4199 19.7498 1.33588 19.8338 1.27987 19.8898C1.22386 19.9739 1.13984 20.0579 1.11183 20.1419C1.08383 20.1979 1.05582 20.2539 1.02782 20.3379C0.99981 20.3659 0.99981 20.3939 0.971804 20.45C0.971804 20.4686 0.962469 20.4873 0.943798 20.506C0.915792 20.59 0.859781 20.786 0.635733 20.758L0.775763 20.87L0.411685 21.4022L0.327667 21.7102H0.243649C0.187637 21.7102 0.131625 21.7102 0.103619 21.7382L0.131625 21.8223C0.187637 21.9623 0.103619 22.0463 0.0476073 22.1023C-0.00840469 22.1583 -0.00840469 22.1583 0.0196013 22.1583C0.0476073 22.2143 0.0476073 22.2423 0.0756132 22.2984C0.159631 22.2423 0.243649 22.1583 0.327667 22.1023L0.383679 22.0743L0.243649 21.8503L0.551715 21.9343C0.551715 21.9063 0.579721 21.8783 0.579721 21.8503L0.663739 21.5142L0.719751 21.2341L0.943798 21.2621V21.4582C0.943798 21.4302 0.971804 21.4302 0.99981 21.4022C1.05582 21.3461 1.11183 21.3742 1.13984 21.4022C1.16785 21.4022 1.16785 21.4302 1.16785 21.4022L1.22386 21.3461C1.27987 21.2901 1.33588 21.2061 1.44791 21.2341H1.47591L1.50392 21.2621C1.53192 21.2901 1.55993 21.3181 1.58794 21.3181C1.61594 21.3181 1.67195 21.2901 1.72797 21.2061L2.06404 20.814C2.12005 20.758 2.17606 20.674 2.20407 20.618C2.31609 20.478 2.42812 20.3099 2.56815 20.1699C2.68017 20.0859 2.79219 20.0299 2.93222 19.9739L2.70817 19.8618L2.98823 19.8058L2.8202 19.5258L3.10026 19.4978C3.07225 19.3857 3.04425 19.2737 3.12826 19.2177V19.1897C3.12826 19.1337 3.10026 19.0777 3.15627 19.0217C3.18428 18.9936 3.24029 18.9656 3.2963 18.9656H3.38032L3.26829 18.7696L3.38032 18.7136C3.46434 18.6856 3.49234 18.6856 3.54835 18.7136C3.57636 18.7136 3.60437 18.7416 3.63237 18.7416L3.66038 18.6856C3.7724 18.3495 4.02446 18.0695 4.19249 17.9854C4.2485 17.9574 4.27651 17.9574 4.33252 17.9574L4.52856 17.7894L4.50056 17.7614L4.86464 17.4253L4.72461 17.2013L4.86464 17.1733C4.94865 17.1453 4.97666 17.1453 5.03267 17.0892C5.1727 16.9212 5.34074 16.8092 5.48077 16.6692C5.56478 16.6131 5.6208 16.5571 5.70481 16.5011Z" fill="#3A9AAF"/>
<path d="M18.8396 19.0217L18.7276 18.9096V19.2457C18.7836 19.1617 18.8116 19.1057 18.8396 19.0217Z" fill="#3A9AAF"/>
<path d="M18.1675 21.3742C18.1675 21.3181 18.2515 21.1501 18.3635 21.1501C18.4195 21.1501 18.4475 21.1501 18.4755 21.0381C18.4755 21.0194 18.4849 21.0007 18.5035 20.9821L18.6716 20.394L18.7276 20.1979C18.7276 20.1699 18.7556 20.1419 18.7556 20.1139C18.7556 20.0859 18.7836 20.0579 18.7836 20.0299C18.7556 20.0299 18.7556 20.0019 18.7556 20.0019C18.6716 20.2819 18.5035 20.59 18.3915 20.702L18.0555 21.0101L18.3355 20.3659L18.1675 20.2819L18.2515 20.0579H18.4195C18.4475 20.0299 18.4475 19.9739 18.4475 19.9178C18.4475 19.7218 18.4755 19.6938 18.5876 19.5538C18.6156 19.5258 18.6436 19.4698 18.6436 19.4137C18.6436 19.3857 18.6716 19.3577 18.6716 19.3017L18.8396 18.8256L18.6996 18.6856L18.8116 18.5176L18.9236 18.5456L18.8116 18.3215C18.7836 18.4055 18.7556 18.4615 18.7276 18.5456L18.6996 18.6576C18.6156 18.8816 18.5316 19.1057 18.4475 19.3017C18.4195 19.3297 18.4195 19.3857 18.3915 19.4137C18.3355 19.4978 18.3075 19.5818 18.3075 19.6658C18.3075 19.7498 18.2795 19.7778 18.2235 19.8618C18.1955 19.8898 18.1955 19.9178 18.1675 19.9459L18.0555 20.1139L17.8314 20.0019C17.8034 19.9459 17.8034 19.9178 17.7754 19.8618C17.7474 19.7778 17.6914 19.6938 17.7474 19.6378C17.8594 19.4978 17.8874 19.3297 17.9154 19.1617L17.9434 19.0777C17.9434 19.0217 17.9714 18.9937 17.9714 18.9376C17.9994 18.8256 18.0274 18.7416 18.0274 18.6296L17.8594 18.5736L17.8874 18.4895C17.9434 18.3215 17.9994 18.1815 18.0835 18.0414C18.1395 17.9294 18.1955 17.8454 18.2235 17.7334C18.2795 17.6214 18.2795 17.5093 18.2795 17.3693C18.2795 17.2013 18.3075 17.0612 18.3915 16.8932C18.3355 16.8652 18.3075 16.8372 18.3075 16.7812C18.2795 16.6692 18.3635 16.5851 18.3635 16.5571C18.3915 16.5291 18.3915 16.4451 18.4195 16.3891V16.1931C18.4195 16.053 18.4195 15.913 18.4475 15.801C18.4755 15.745 18.4755 15.6889 18.5035 15.6329H18.4755C18.4475 15.717 18.4475 15.801 18.4195 15.885V16.081C18.4195 16.165 18.4195 16.2771 18.3915 16.3611L18.2235 16.8652C18.1955 16.9492 18.1395 17.0612 18.1115 17.1453C18.0835 17.2013 18.0835 17.2293 18.0835 17.2853C18.0835 17.3133 18.0835 17.3693 18.0555 17.3973V17.4253L18.0274 17.4533C18.0274 17.4813 17.9994 17.5093 17.9994 17.5093C17.9714 17.5934 17.9154 17.6774 17.8874 17.7614C17.8594 17.8734 17.8314 17.9854 17.8034 18.0695C17.7754 18.2375 17.7194 18.4055 17.6634 18.5736C17.6074 18.7136 17.5513 18.8536 17.4673 18.9937C17.4113 19.1057 17.3553 19.1897 17.3273 19.3017C17.2993 19.3577 17.2993 19.4137 17.2993 19.4698C17.2993 19.5538 17.2713 19.6658 17.2153 19.7498C17.0752 19.9459 17.0192 20.1419 16.9632 20.3659C16.9352 20.506 16.9072 20.646 16.8512 20.758C16.8232 20.8701 16.7672 20.9541 16.7112 21.0661C16.6271 21.2341 16.5431 21.4302 16.5151 21.5982C16.4591 21.8223 16.3471 22.0183 16.2631 22.2143L16.2071 22.3264C16.151 22.4384 16.095 22.5224 16.011 22.6344C15.983 22.6904 15.927 22.7465 15.899 22.8025L15.815 22.9425L15.731 22.7745L15.6469 22.6064C15.5909 22.4944 15.5349 22.3824 15.5069 22.2423C15.4229 21.9343 15.3389 21.5982 15.2549 21.2901L15.2268 21.1501C15.1428 20.786 15.0028 20.534 14.8068 20.3379C14.7507 20.2819 14.7227 20.2819 14.6667 20.3099H14.6387V20.422C14.6387 20.478 14.6667 20.534 14.6667 20.618C14.6947 20.702 14.6947 20.814 14.7227 20.8981V21.1501C14.7507 21.7662 14.7507 22.3824 14.7507 22.9985C14.7507 23.3066 14.7227 23.5866 14.6667 23.8947C14.6387 24.0627 14.6387 24.2588 14.6107 24.4268C14.6107 24.5108 14.6387 24.5948 14.6667 24.6229C14.8068 24.8189 14.9748 25.0149 15.1428 25.183L15.1988 25.239C15.2829 25.351 15.4229 25.463 15.5069 25.463C15.759 25.491 16.095 25.435 16.3191 25.127L16.4871 24.8749C16.5991 24.7069 16.7112 24.5668 16.8232 24.3988C16.9632 24.2308 17.1033 24.0347 17.2433 23.8667C17.3273 23.7547 17.4393 23.6146 17.5233 23.5026L17.5513 23.4466C17.5794 23.4186 17.6354 23.3626 17.6354 23.3346C17.6354 23.1945 17.7194 23.0825 17.7754 22.9985C17.8314 22.8865 17.8874 22.8025 17.8874 22.6904C17.8874 22.6064 17.9154 22.5224 17.9714 22.4384C18.0274 22.3264 18.0555 22.2704 17.9994 22.1863C17.9714 22.1023 17.9994 22.0463 18.0555 21.9903L18.1115 21.9343C18.1115 21.8503 18.1395 21.7382 18.1395 21.6542C18.1395 21.5702 18.1395 21.4582 18.1675 21.3742Z" fill="#3A9AAF"/>
<path d="M18.8956 18.1255C18.9236 18.0415 18.9516 17.9574 19.0077 17.8734L19.0357 17.7894C19.0077 17.7334 19.0077 17.6774 19.0077 17.6494C19.0077 17.6214 19.0357 17.5934 19.0357 17.5934L18.9796 17.5654L18.9516 17.6774C18.8956 17.8174 18.8396 17.9294 18.8116 18.0695C18.7836 18.1535 18.7556 18.2655 18.6996 18.3495L18.7836 18.4055C18.7836 18.3775 18.8116 18.3495 18.8396 18.3495C18.8676 18.3215 18.8676 18.2935 18.8956 18.2375V18.1255Z" fill="#3A9AAF"/>
<path d="M6.71302 23.5866V22.6624C6.71302 22.4104 6.71302 22.1863 6.76904 21.9343C6.79704 21.7102 6.76904 21.5702 6.62901 21.4022L6.04088 22.7185H5.84484V22.4664C5.84484 22.3264 5.84484 22.2143 5.78883 22.1023C5.6488 21.5702 5.70481 21.0381 5.76082 20.506C5.76082 20.422 5.78883 20.3379 5.78883 20.2259C5.87284 19.4978 5.76082 18.8816 5.42475 18.3215C5.36874 18.2095 5.34073 18.1815 5.34073 18.1815L5.25671 18.2655C5.22871 18.2935 5.17269 18.3495 5.17269 18.4055C5.11668 18.4896 5.06067 18.6016 5.03266 18.6856C4.89263 18.9377 4.75261 19.1897 4.66859 19.4418C4.58457 19.6658 4.50055 19.9179 4.41653 20.1419C4.38853 20.2819 4.33252 20.394 4.30451 20.534C3.99644 21.4582 3.91243 22.3824 4.08046 23.2786C4.10847 23.4746 4.16448 23.6987 4.22049 23.8947L4.2765 24.0627C4.2765 24.0627 4.30451 24.0907 4.30451 24.1188C4.33252 24.1468 4.33252 24.1748 4.36052 24.2308C4.38853 24.3148 4.38853 24.4268 4.41653 24.5388C4.44454 24.7349 4.47255 24.9309 4.55656 25.099C4.64058 25.323 4.78061 25.5191 4.94865 25.7151L4.97665 25.7711C5.08868 25.9391 5.2007 26.0512 5.31272 26.0792C5.50877 26.1632 5.73281 26.2192 5.90085 26.1912C6.26493 26.1632 6.54499 25.9671 6.65701 25.6591C6.74103 25.463 6.74103 25.211 6.76904 24.9869V23.7827C6.71302 23.6987 6.71302 23.6427 6.71302 23.5866Z" fill="#3A9AAF"/>
<path d="M75.4957 25.6871C75.5517 25.6311 75.6077 25.547 75.6637 25.491V25.463C75.7198 25.323 75.8038 25.183 75.8038 25.0429C75.8038 24.9029 75.7758 24.7349 75.7197 24.6789L75.6917 24.6509C75.6357 24.5948 75.6077 24.5668 75.5797 24.4548C75.5797 24.3148 75.5237 24.2868 75.5237 24.2868C75.5237 24.2868 75.4677 24.2588 75.3277 24.3428L75.2156 24.3988L75.1036 23.9787C75.0756 23.9787 75.0476 23.9787 74.9916 23.9507C74.9356 23.8947 74.9076 23.8387 74.9076 23.7827C74.8796 23.7827 74.8516 23.7827 74.8236 23.7547C74.7676 23.7267 74.7395 23.6426 74.7395 23.5586C74.7395 23.3906 74.7115 23.1945 74.6275 22.9985C74.4315 22.5504 74.3755 22.1583 74.3755 21.7942C74.4035 21.4582 74.4035 21.1221 74.4035 20.814V19.0497C74.4035 18.8816 74.4315 18.7136 74.4595 18.5736C74.4595 18.5456 74.4875 18.5175 74.5155 18.4895C74.4595 18.3495 74.5155 18.2095 74.5435 18.0975C74.5715 18.0414 74.5995 17.9854 74.5995 17.9574C74.6275 17.6774 74.7115 17.4253 74.7956 17.1733C74.6275 17.5093 74.4595 17.8734 74.3194 18.2095C73.9834 19.0497 73.7593 19.9459 73.6753 21.0101C73.6753 21.1221 73.6473 21.2621 73.6193 21.3742C73.5913 21.5422 73.5633 21.6822 73.5633 21.8503C73.5633 21.9903 73.5353 22.1303 73.5073 22.2703C73.4793 22.4104 73.4513 22.5784 73.4513 22.7184C73.4793 22.9705 73.4233 23.2506 73.3392 23.5306C73.2552 23.8387 73.1712 24.1187 73.1712 24.3988C73.1432 24.6789 73.1712 24.8469 73.2832 25.0149C73.3112 25.0709 73.3392 25.099 73.3672 25.155C73.4793 25.379 73.5633 25.519 73.8153 25.463C73.8714 25.435 73.9554 25.463 73.9834 25.519L74.0114 25.547C74.2354 25.7431 74.4595 25.9391 74.7956 25.9111H74.8236C74.8516 25.9111 74.8796 25.9391 74.9076 25.9391L75.1316 26.0231L75.2437 25.9391C75.3557 25.8271 75.4397 25.7711 75.4957 25.6871Z" fill="#3A9AAF"/>
<path d="M78.7164 13.2244C78.8284 13.1124 78.9125 12.9724 78.9965 12.8603C79.0805 12.7203 79.1365 12.5803 79.1925 12.4683C79.2485 12.3562 79.3045 12.2162 79.3886 12.1042C79.5006 11.8801 79.5006 11.8521 79.3605 11.7681L79.3325 11.7401L79.3045 11.6001C79.3045 11.5721 79.3045 11.5441 79.2765 11.5161C79.0245 11.6561 78.7444 11.7961 78.4924 11.9361C78.0723 12.1602 77.6242 12.3842 77.2321 12.6643V12.6923C77.2881 12.7763 77.3441 12.8323 77.3161 12.9164C77.2881 13.0564 77.2041 13.1964 77.1481 13.2804C77.036 13.4485 76.952 13.6445 76.896 13.8966C76.812 14.3166 77.008 14.5687 77.2601 14.8488L77.3441 14.9328C77.3441 14.9328 77.3721 14.9608 77.4001 14.9608H77.5962C77.7922 14.9608 77.9602 14.9888 78.1283 14.9328C78.4083 14.8394 78.511 14.6434 78.4363 14.3447C78.3523 13.9246 78.4363 13.5885 78.6884 13.3084L78.7164 13.2244Z" fill="#3A9AAF"/>
<path d="M71.2948 14.2887C71.4909 13.8966 71.5469 13.7005 71.3508 13.4485C71.0988 13.0844 70.7907 12.7203 70.5387 12.3843C70.4546 12.2722 70.3426 12.1602 70.2586 12.0482C70.1466 11.9081 70.0626 11.7961 69.9505 11.6561C69.8945 11.6001 69.8385 11.5441 69.7825 11.4601H69.4464C69.3624 11.4881 68.9983 12.0202 68.9703 12.1602C68.9703 12.2162 68.9423 12.3002 68.9423 12.3562C68.9143 12.4403 68.9143 12.5243 68.9143 12.6083C68.9143 12.6923 68.9423 12.7763 68.9423 12.8043C69.1944 12.9164 69.3064 13.1404 69.4184 13.3645L69.5024 13.5325L69.5304 13.5885C69.6705 13.8126 69.8105 14.0646 69.9785 14.2326C70.1746 14.4007 70.4546 14.5127 70.7627 14.5687C71.0428 14.5687 71.1548 14.5687 71.2948 14.2887Z" fill="#3A9AAF"/>
<path d="M73.7033 3.45034H73.7873C74.0394 3.50635 74.3195 3.61837 74.5995 3.81442C74.7395 3.89843 74.8796 4.03846 74.9916 4.15049C75.0476 4.23451 75.1316 4.29052 75.2157 4.34653C75.2717 4.40254 75.4677 4.43055 75.6357 4.43055C75.7478 4.40254 75.8318 4.37454 75.8598 4.34653C76.0278 4.09448 76.2239 3.78641 76.1959 3.42233C76.1679 3.17028 76.0278 2.97424 75.8598 2.75019C75.7478 2.58215 75.6077 2.47013 75.4397 2.35811C75.2997 2.24608 75.1596 2.16206 75.0476 2.02203H74.9356C74.7115 2.05004 74.5435 2.05004 74.4035 2.24608C74.2915 2.41412 74.1514 2.55415 73.9834 2.66617C73.7874 2.8062 73.5913 2.94623 73.3673 3.08626C73.1712 3.22629 72.9752 3.33831 72.7791 3.47834L72.7231 3.50635C72.6951 3.53436 72.6671 3.53436 72.6391 3.56236L73.3673 3.31031L73.2832 3.47834C73.4793 3.50635 73.5913 3.45034 73.7033 3.45034Z" fill="#3A9AAF"/>
<path d="M36.8755 5.21472C36.9875 5.07469 37.0715 4.93466 37.1835 4.79463C37.1835 4.79463 37.1835 4.73861 37.1555 4.71061C37.1275 4.54257 37.0715 4.43055 36.9875 4.29052L36.9595 4.2065C36.8755 4.01046 36.7354 3.89843 36.5674 3.87043C36.4554 3.84242 36.3154 3.81442 36.2033 3.78641C36.0073 3.7304 35.8112 3.70239 35.6152 3.70239C35.5032 3.70239 35.3912 3.7304 35.2791 3.7584C34.9991 3.87043 34.747 3.92644 34.607 4.15049C34.579 4.2065 34.551 4.29052 34.579 4.34653C34.635 4.62659 34.831 4.76662 35.1111 4.90665C35.3071 5.01867 35.5312 5.1307 35.7272 5.29873C36.0073 5.52278 36.2873 5.71882 36.6794 5.77483L36.8195 5.55079L36.7074 5.41076L36.7635 5.35475L36.8755 5.21472Z" fill="#3A9AAF"/>
<path d="M33.3747 8.96752C33.3467 9.02353 33.3467 9.07954 33.3747 9.16356C33.4587 9.44362 33.5707 9.77969 33.7388 10.0317C33.9068 10.2558 34.1029 10.4238 34.2989 10.6199C34.3549 10.6759 34.4389 10.7319 34.4949 10.7879L34.607 10.7599C34.691 10.7319 34.803 10.7319 34.887 10.7319C35.1391 10.7039 35.3351 10.5919 35.4752 10.4238C35.5872 10.2838 35.6152 10.1438 35.5872 9.97573C35.5592 9.8357 35.5032 9.69567 35.3631 9.49963C35.2511 9.3596 35.1111 9.21957 34.971 9.10755C34.915 9.05154 34.859 8.99553 34.831 8.93951C34.747 8.82749 34.691 8.77148 34.579 8.79948C34.4389 8.82749 34.2989 8.79948 34.1869 8.74347C34.0468 8.71547 33.9348 8.65945 33.8228 8.60344L33.5707 8.51942H33.5427L33.5988 8.8555L33.5147 8.8835C33.4307 8.91151 33.4027 8.93951 33.3747 8.96752Z" fill="#3A9AAF"/>
<path d="M0.719748 22.1863H0.691742V22.2143L0.719748 22.1863Z" fill="#3A9AAF"/>
<path d="M75.0476 23.6427L74.9636 23.0825C75.1316 22.9985 74.9916 23.3906 75.2437 23.2226L75.2156 23.4466L75.1036 23.3906C75.0756 23.4466 75.0476 23.5306 75.0476 23.6427Z" fill="#3A9AAF"/>
<path d="M4.64059 11.152C4.67793 11.152 4.70593 11.124 4.7246 11.068C4.7246 11.0493 4.73394 11.0306 4.75261 11.012L4.61258 11.152H4.64059Z" fill="#3A9AAF"/>
<path d="M7.18913 9.30359L7.69323 9.05154C8.0293 8.8555 8.39338 8.65946 8.75746 8.43541C8.9535 8.29538 9.14954 8.15535 9.31758 7.98731L9.4016 7.90329C9.70966 7.62323 9.84969 7.17514 9.70966 6.83907C9.65365 6.69904 9.59764 6.58701 9.54163 6.44698C9.45761 6.27895 9.4016 6.11091 9.31758 5.97088C9.23356 5.77484 9.17755 5.5788 9.14954 5.41076L9.09353 5.24273C9.03752 5.07469 8.98151 4.90666 8.9535 4.71061C8.86948 4.40255 8.78547 4.06648 8.67344 3.75841C8.64544 3.61838 8.56142 3.45034 8.36538 3.39433C8.19734 3.50636 8.16933 3.67439 8.14133 3.87043C8.14133 3.89844 8.14133 3.95445 8.11332 3.98246C8.11332 4.03847 8.08532 4.06648 8.08532 4.12249C8.05731 4.31853 8.0293 4.48657 8.05731 4.6546C8.05731 4.71061 8.05731 4.76663 8.0293 4.79463V4.82264C8.16933 5.1307 7.97329 5.35475 7.83326 5.52279C7.72124 5.66282 7.5532 5.80285 7.41317 5.94288C7.35716 5.99889 7.27314 6.0549 7.21713 6.13892L6.99308 6.36297L6.40496 6.95109L6.37695 6.92309C6.29293 7.0071 6.20892 7.09112 6.20892 7.17514C6.1529 7.51121 5.92886 7.76326 5.6488 7.84728C5.53677 7.87529 5.45275 7.9313 5.42475 7.95931C5.36874 8.04332 5.31273 8.09934 5.22871 8.15535C5.11668 8.26737 5.00466 8.3794 5.00466 8.54743C5.00466 8.60344 4.94865 8.63145 4.94865 8.65946L4.86463 8.77148C4.78061 8.8835 4.66859 8.99553 4.58457 9.07955C4.52856 9.13556 4.47255 9.13556 4.44454 9.16356C4.44454 9.16356 4.41653 9.16356 4.41653 9.19157C4.38853 9.19157 4.36052 9.21957 4.36052 9.21957H4.30451C4.19249 9.3316 4.10847 9.47163 3.99644 9.61166L3.94043 9.66767L4.22049 9.69568L4.16448 9.89172V9.94773C4.19249 10.2838 3.96844 10.5639 3.63237 10.6199H3.60436L3.57635 10.7039C3.57635 10.7319 3.54835 10.7599 3.54835 10.7879C3.52034 10.8439 3.52034 10.9279 3.46433 10.984L3.12826 11.404L2.96022 11.6001L2.90421 11.6561C2.8482 11.7681 2.76418 11.8521 2.70817 11.9642C2.62415 12.1042 2.51213 12.2722 2.42811 12.4123C2.3721 12.4963 2.31609 12.5803 2.26007 12.6363C2.12004 12.8043 2.00802 12.9724 1.924 13.1684C1.924 13.1964 1.896 13.2244 1.896 13.2524C1.924 13.2524 1.95201 13.2524 1.95201 13.2244H2.12004L2.06403 13.1684L2.17606 12.9164C2.26007 12.7763 2.31609 12.6083 2.4001 12.4683C2.42811 12.4123 2.48412 12.3842 2.54013 12.3562C2.68016 12.2722 2.73618 12.1882 2.76418 12.0202C2.76418 11.9081 2.87621 11.8241 2.96022 11.7961C3.07225 11.7681 3.04424 11.7121 3.04424 11.6561C3.01624 11.5721 3.01623 11.4601 3.10025 11.404C3.18427 11.32 3.29629 11.376 3.40832 11.404C3.42699 11.404 3.44566 11.4134 3.46433 11.432H3.49234L3.46433 11.5161H3.54835V11.6841V11.8241C3.63237 11.7401 3.71638 11.6561 3.74439 11.5441C3.8004 11.376 3.88442 11.32 3.96844 11.236L3.85641 11.04L4.05246 11.012L3.94043 10.8719L4.22049 10.8439L4.30451 10.5639L4.41653 10.6199C4.44454 10.6479 4.47255 10.6479 4.47255 10.6479V10.5919C4.47255 10.5639 4.50055 10.5078 4.52856 10.4798L4.61258 10.3958L4.64058 10.3678C4.69659 10.3118 4.75261 10.2838 4.80862 10.2278L4.89264 10.1438L4.80862 10.0037L5.17269 9.97574C5.14469 9.91972 5.11668 9.86371 5.14469 9.8077C5.1727 9.69568 5.28472 9.63967 5.36874 9.61166L5.62079 9.52764L5.84484 9.44362L5.90085 9.55565C5.95686 9.63966 5.98487 9.72368 5.95686 9.8077C5.98487 9.7797 6.01287 9.77969 6.04088 9.77969C6.20892 9.75169 6.29293 9.63967 6.40496 9.52764C6.48898 9.44362 6.601 9.3316 6.74103 9.27559L6.90907 9.19157L7.18913 9.02353L7.10511 9.3596C7.16112 9.3316 7.16112 9.30359 7.18913 9.30359Z" fill="#3A9AAF"/>
<path d="M5.25671 10.5079C5.25671 10.4798 5.28472 10.4798 5.28472 10.4518H5.25671C5.17269 10.4798 5.11668 10.5359 5.06067 10.6199C5.08867 10.5919 5.11668 10.5919 5.14469 10.5639C5.2007 10.5639 5.22871 10.5359 5.25671 10.5079Z" fill="#3A9AAF"/>
<path d="M2.8762 12.6083C2.8482 12.6363 2.82019 12.6643 2.82019 12.6923H2.8482C2.82019 12.6923 2.8482 12.6643 2.8762 12.6083Z" fill="#3A9AAF"/>
<path d="M2.17606 13.5325C2.23207 13.4765 2.26008 13.3925 2.31609 13.3084C2.31609 13.3084 2.28808 13.3084 2.28808 13.3364L2.20406 13.3645L2.14805 13.3084L2.09204 13.3925C2.09204 13.3925 2.12005 13.4205 2.12005 13.4485C2.14805 13.4765 2.17606 13.5045 2.17606 13.5325Z" fill="#3A9AAF"/>
<path d="M5.73281 10.0317L5.81683 9.94773L5.84484 9.91972C5.81683 9.91972 5.78882 9.94773 5.73281 9.94773L5.70481 9.97574C5.6768 10.0317 5.64879 10.0598 5.62079 10.1158L5.64879 10.0878C5.6768 10.0598 5.70481 10.0317 5.73281 10.0317Z" fill="#3A9AAF"/>
<path d="M10.4938 16.8932L10.7179 16.5291L10.8299 16.6692L10.5218 16.9212L10.4938 16.8932Z" fill="#3A9AAF"/>
<path d="M85.6339 29.7759L85.2978 29.6079L85.3258 29.5239C85.3818 29.5239 85.4658 29.5239 85.5218 29.5519C85.5778 29.5799 85.6339 29.6639 85.6619 29.7199L85.6339 29.7759Z" fill="#3A9AAF"/>
</g>
<defs>
<clipPath id="clip0_186_695">
<rect width="92.8398" height="30" fill="white"/>
</clipPath>
</defs>
</svg>
